<?xml version="1.0" encoding="UTF-8" standalone="no"?>
<svg
   version="1.1"
   viewBox="-5 -10 188.97638 157.93602"
   id="svg2"
   sodipodi:docname="heart-pixel.svg"
   inkscape:version="1.4.2 (ebf0e940d0, 2025-05-08)"
   width="188.97638"
   height="157.93602"
   xmlns:inkscape="http://www.inkscape.org/namespaces/inkscape"
   xmlns:sodipodi="http://sodipodi.sourceforge.net/DTD/sodipodi-0.dtd"
   xmlns="http://www.w3.org/2000/svg"
   xmlns:svg="http://www.w3.org/2000/svg">
  <defs
     id="defs2" />
  <sodipodi:namedview
     id="namedview2"
     pagecolor="#ffffff"
     bordercolor="#000000"
     borderopacity="0.25"
     inkscape:showpageshadow="2"
     inkscape:pageopacity="0.0"
     inkscape:pagecheckerboard="0"
     inkscape:deskcolor="#d1d1d1"
     inkscape:zoom="4"
     inkscape:cx="26.375"
     inkscape:cy="85.375001"
     inkscape:window-width="2560"
     inkscape:window-height="1371"
     inkscape:window-x="0"
     inkscape:window-y="0"
     inkscape:window-maximized="1"
     inkscape:current-layer="layer2" />
  <g
     inkscape:groupmode="layer"
     id="layer2"
     inkscape:label="Edge.Cuts"
     transform="translate(-0.8710821)">
    <path
       id="path1-0-2"
       style="fill:#51ff00;fill-opacity:1;stroke-width:2.32553"
       d="M 27.32022,-10.000012 V 0.510291 H 17.11878 V 11.020585 H 6.35414 V 21.530877 H -4.12889 v 42.32278 H 6.35414 V 74.36395 h 10.48304 v 10.510294 h 10.48304 v 10.510293 h 10.48306 v 10.510293 h 10.48303 v 10.51029 h 10.48304 v 10.5103 h 10.483032 v 10.51029 H 79.73544 v 10.5103 h 21.24765 v -10.5103 h 10.48306 v -10.51029 h 10.48304 v -10.5103 h 10.48303 v -10.51029 h 10.48304 V 95.384537 h 10.48305 V 84.874244 h 10.48304 V 74.36395 h 10.48304 V 63.853657 h 10.48304 V 21.530877 H 174.36439 V 11.020585 h -0.009 -10.48307 V 0.510291 H 153.38954 V -10.000012 H 111.17546 V 0.510291 H 100.6924 V 11.020585 H 80.017038 V 0.510291 H 69.534003 v -10.510303 z"
       sodipodi:nodetypes="cccccccccccccccccccccccccccccccccccccccccccccccccccccccccc" />
  </g>
  <g
     inkscape:groupmode="layer"
     id="layer3"
     inkscape:label="F.Cu"
     transform="translate(-62.520172,-75.425657)">
    <path
       id="path1-0"
       style="fill:#ffff00;fill-opacity:1;stroke-width:2.32553"
       d="M 88.969321,65.425657 V 75.935951 H 78.767884 V 86.446242 H 68.003251 V 96.956546 H 57.520193 v 42.322784 h 10.483058 v 10.51029 h 10.483038 v 10.51029 h 10.483035 v 10.51029 h 10.483035 v 10.5103 h 10.483061 v 10.51029 h 10.48303 v 10.51029 h 10.48304 v 10.5103 h 10.48303 v 10.5103 h 21.2477 v -10.5103 h 10.48303 v -10.5103 h 10.48306 v -10.51029 h 10.48304 V 181.3205 h 10.48304 v -10.5103 h 10.48305 v -10.51029 h 10.48303 v -10.51029 h 10.48304 v -10.51029 h 10.48303 V 96.956546 H 236.01351 V 86.446242 h -0.009 -10.48304 V 75.935951 H 215.03869 V 65.425657 H 172.82456 V 75.935951 H 162.34153 V 86.446242 H 141.66614 V 75.935951 H 131.18311 V 65.425657 Z m 0.281599,10.791916 h 41.64149 v 10.510291 h 10.48304 v 10.510287 h 21.2477 V 86.727864 h 10.48303 V 76.217573 h 41.63694 v 10.510291 h 10.48303 v 10.510287 h 10.48304 v 41.759569 h -10.48304 v 10.51029 h -10.4694 v 10.51029 h -10.48306 v 10.5103 h -10.48303 v 10.51029 h -10.48304 v 10.51029 h -10.48306 v 10.51029 h -10.48303 v 10.51031 H 141.66614 V 202.05947 H 131.18311 V 191.54918 H 120.70005 V 181.03889 H 110.21701 V 170.5286 H 99.733978 V 160.0183 H 89.25092 V 149.50801 H 78.767884 V 138.99772 H 68.28485 V 97.238151 H 78.767884 V 86.727864 H 89.25092 Z m 10.210529,10.228669 v 9.928923 H 88.978414 V 106.88546 H 78.504449 v 21.30219 h 10.764656 v -21.0115 H 99.743047 V 97.238151 H 110.22611 V 86.446242 Z" />
  </g>
  <g
     inkscape:groupmode="layer"
     id="layer4"
     inkscape:label="F.Mask"
     transform="translate(-0.8710821)">
    <path
       id="path1-0-7"
       style="fill:#ffff00;fill-opacity:1;stroke-width:2.32553"
       d="M 27.320209,-9.9999954 V 0.51029524 H 17.118772 V 11.020585 H 6.3541634 V 21.530899 H -4.1289179 V 63.853665 H 6.3541634 v 10.51029 H 16.837175 v 10.510289 h 10.483058 v 10.510291 h 10.483035 v 10.510315 h 10.483058 v 10.51029 H 58.76937 v 10.51029 h 10.483035 v 10.51029 H 79.73544 v 10.51029 h 21.24769 v -10.51029 h 10.48304 v -10.51029 h 10.48305 v -10.51029 h 10.48305 V 105.89485 H 142.9153 V 95.384535 h 10.48306 V 84.874244 H 163.8814 V 74.363955 h 10.48302 v -10.51029 h 10.48304 V 21.530899 H 174.36442 V 11.020585 h -0.009 -10.48304 V 0.51029524 H 153.38961 V -9.9999954 H 111.17548 V 0.51029524 H 100.69244 V 11.020585 H 80.017038 V 0.51029524 H 69.534003 V -9.9999954 Z M 27.601808,0.79191663 H 69.243312 V 11.302207 H 79.726348 V 21.812498 H 100.97406 V 11.302207 H 111.4571 V 0.79191663 h 41.63693 V 11.302207 h 10.48304 v 10.510291 h 10.48304 v 41.759568 h -10.48304 v 10.51029 h -10.46942 v 10.510291 h -10.48304 v 10.510289 h -10.48306 v 10.510294 h -10.48304 v 10.51029 h -10.48303 v 10.51029 h -10.48304 v 10.51031 H 80.017038 V 126.63381 H 69.534003 V 116.12352 H 59.050968 V 105.61323 H 48.567901 V 95.102936 H 38.084866 V 84.592647 H 27.601808 V 74.082356 H 17.118772 V 63.572066 H 6.6357383 V 21.812498 H 17.118772 V 11.302207 H 27.601808 Z M 37.812337,11.020585 v 9.928933 H 27.329303 V 31.459807 H 16.855337 V 52.761993 H 27.619993 V 31.750498 h 10.473943 v -9.938 H 48.576994 V 11.020585 Z" />
  </g>
  <path
     id="path2-3-6-6"
     style="fill:#ff0000;fill-opacity:1;stroke:none;stroke-width:2.32553;stroke-opacity:1"
     d="m 229.96611,10.520597 h 0.28162 z M 240.73076,0.29191238 V 10.802205 h -10.48303 v 10.510292 h -10.48305 v 41.759568 h 10.48305 v 10.510292 h 10.48303 v 10.510291 h 10.48304 v 10.510293 h 10.48304 v 10.510289 h 10.48305 v 10.5103 h 10.48304 v 10.5103 h 10.48304 v 10.51029 h 20.6754 v -10.51029 h 10.48304 v -10.5103 h 10.48302 v -10.5103 h 10.48304 V 94.602941 h 10.48307 V 84.092648 h 10.48303 V 73.582357 h 10.46941 V 63.072065 h 10.48304 V 21.312497 H 376.70597 V 10.802205 H 366.22294 V 0.29191238 H 324.586 V 10.802205 h -10.48303 v 10.510292 h -21.2477 V 10.802205 H 282.37224 V 0.29191238 Z M 250.93674,10.520597 h 10.76465 v 10.7919 h -10.48305 v 9.937996 H 240.74439 V 52.261994 H 229.97974 V 30.959803 H 240.4537 V 20.449508 h 10.48304 z"
     sodipodi:nodetypes="ccccccccccccccccccccccccccccccccccccccccccccccccccccccccccccccccc" />
</svg>
