<svg xmlns="http://www.w3.org/2000/svg" version="1.1" viewBox="-5.0 -10.0 110.0 135.0">
 <path d="m27.402 29.352h-4.5078v4.5195h-4.5039v9.1602h4.6289v-9.0352h4.5039v-4.2734h4.5078v-4.6406h-4.6289z"/>
 <path d="m86.117 25.082h-4.5078v-4.5195h-4.5078v-4.5195h-18.152v4.5195h-4.5078v4.5195h-8.8906v-4.5195h-4.5078v-4.5195h-18.152v4.5195h-9.0156v9.0391h-4.5078v18.199h4.5078v4.5195h4.5078v4.5195h4.5078v4.5195h4.5078v4.5195h4.5078v4.5195h4.5078v4.5195h4.5078v4.5195h4.5078v4.5195h9.1367v-4.5195h4.5078v-4.5195h4.5078v-4.5195h4.5078v-4.5195h4.5078v-4.5195h4.5078v-4.5195h4.5078v-4.5195h4.5078v-4.5195h4.5078v-18.199h-4.5078v-4.5195zm-4.6289 27.117h-4.5078v4.5195h-4.5078v4.5195h-4.5078v4.5195h-4.5078v4.5195h-4.5078v4.5195h-4.5078v4.5195h-8.8906v-4.5195h-4.5078v-4.5195h-4.5078v-4.5195h-4.5078v-4.5195h-4.5078v-4.5195h-4.5078v-4.5195h-4.5078v-4.5195h-4.5078v-17.957h4.5078v-4.5195h4.5078v-4.5195h17.906v4.5195h4.5078v4.5195h9.1367v-4.5195h4.5078v-4.5195h17.906v4.5195h4.5078v4.5195h4.5078v17.957h-4.5078v4.5195z"/>
<text x="0.0" y="117.5" font-size="5.0" font-weight="bold" font-family="Arbeit Regular, Helvetica, Arial-Unicode, Arial, Sans-serif" fill="#000000">Created by Color Combo</text><text x="0.0" y="122.5" font-size="5.0" font-weight="bold" font-family="Arbeit Regular, Helvetica, Arial-Unicode, Arial, Sans-serif" fill="#000000">from Noun Project</text></svg>