M48
; DRILL file {KiCad 9.0.7} date 2026-01-11T09:41:44+0100
; FORMAT={-:-/ absolute / metric / decimal}
; #@! TF.CreationDate,2026-01-11T09:41:44+01:00
; #@! TF.GenerationSoftware,Kicad,Pcbnew,9.0.7
; #@! TF.FileFunction,Plated,1,2,PTH
FMAT,2
METRIC
; #@! TA.AperFunction,Plated,PTH,ComponentDrill
T1C0.750
; #@! TA.AperFunction,Plated,PTH,ComponentDrill
T2C0.800
; #@! TA.AperFunction,Plated,PTH,ComponentDrill
T3C0.900
; #@! TA.AperFunction,Plated,PTH,ComponentDrill
T4C1.500
%
G90
G05
T1
X141.98Y-77.98
X141.98Y-80.52
X143.25Y-79.25
X151.73Y-81.77
X153.0Y-80.5
X154.27Y-81.77
X162.48Y-79.27
X163.75Y-78.0
X163.75Y-80.54
T2
X138.5Y-80.63
X138.5Y-88.25
X141.056Y-90.056
X143.797Y-74.39
X146.444Y-95.444
X149.13Y-97.0
X150.703Y-77.61
X151.818Y-102.0
X154.318Y-102.0
X155.594Y-77.61
X156.75Y-97.0
X159.362Y-95.388
X162.5Y-74.39
X164.75Y-90.0
X167.5Y-80.5
X167.5Y-88.12
X171.5Y-80.0
X171.5Y-82.5
T3
X151.725Y-89.0
X154.265Y-89.0
T4
X143.2Y-85.75
X163.2Y-85.75
M30
