%TF.GenerationSoftware,KiCad,Pcbnew,9.0.7*%
%TF.CreationDate,2026-01-11T09:41:47+01:00*%
%TF.ProjectId,heartbeatTHT,68656172-7462-4656-9174-5448542e6b69,rev?*%
%TF.SameCoordinates,Original*%
%TF.FileFunction,Soldermask,Top*%
%TF.FilePolarity,Negative*%
%FSLAX46Y46*%
G04 Gerber Fmt 4.6, Leading zero omitted, Abs format (unit mm)*
G04 Created by KiCad (PCBNEW 9.0.7) date 2026-01-11 09:41:47*
%MOMM*%
%LPD*%
G01*
G04 APERTURE LIST*
G04 Aperture macros list*
%AMRoundRect*
0 Rectangle with rounded corners*
0 $1 Rounding radius*
0 $2 $3 $4 $5 $6 $7 $8 $9 X,Y pos of 4 corners*
0 Add a 4 corners polygon primitive as box body*
4,1,4,$2,$3,$4,$5,$6,$7,$8,$9,$2,$3,0*
0 Add four circle primitives for the rounded corners*
1,1,$1+$1,$2,$3*
1,1,$1+$1,$4,$5*
1,1,$1+$1,$6,$7*
1,1,$1+$1,$8,$9*
0 Add four rect primitives between the rounded corners*
20,1,$1+$1,$2,$3,$4,$5,0*
20,1,$1+$1,$4,$5,$6,$7,0*
20,1,$1+$1,$6,$7,$8,$9,0*
20,1,$1+$1,$8,$9,$2,$3,0*%
G04 Aperture macros list end*
%ADD10C,0.000000*%
%ADD11C,2.000000*%
%ADD12R,1.800000X1.100000*%
%ADD13RoundRect,0.275000X0.625000X-0.275000X0.625000X0.275000X-0.625000X0.275000X-0.625000X-0.275000X0*%
%ADD14RoundRect,0.275000X-0.625000X0.275000X-0.625000X-0.275000X0.625000X-0.275000X0.625000X0.275000X0*%
%ADD15R,1.100000X1.800000*%
%ADD16RoundRect,0.275000X-0.275000X-0.625000X0.275000X-0.625000X0.275000X0.625000X-0.275000X0.625000X0*%
%ADD17RoundRect,0.250000X-0.550000X-0.550000X0.550000X-0.550000X0.550000X0.550000X-0.550000X0.550000X0*%
%ADD18C,1.600000*%
%ADD19R,1.800000X1.800000*%
%ADD20C,1.800000*%
%ADD21R,3.000000X3.000000*%
%ADD22C,3.000000*%
G04 APERTURE END LIST*
D10*
%TO.C,heart*%
G36*
X147521701Y-71022809D02*
G01*
X150223843Y-71022809D01*
X150223843Y-73638067D01*
X155553204Y-73638067D01*
X155553204Y-71022809D01*
X158255347Y-71022809D01*
X158255347Y-68407551D01*
X169136603Y-68407551D01*
X169136603Y-71022809D01*
X171838676Y-71022809D01*
X171838676Y-73638067D01*
X174540820Y-73638067D01*
X174543140Y-73638067D01*
X174543140Y-76253331D01*
X177245283Y-76253331D01*
X177245283Y-86784434D01*
X174543140Y-86784434D01*
X174543140Y-89399692D01*
X171841001Y-89399692D01*
X171841001Y-92014949D01*
X169138858Y-92014949D01*
X169138858Y-94630207D01*
X166436709Y-94630207D01*
X166436709Y-97245472D01*
X163734569Y-97245472D01*
X163734569Y-99860729D01*
X161032422Y-99860729D01*
X161032422Y-102475987D01*
X158330276Y-102475987D01*
X158330276Y-105091245D01*
X155628133Y-105091245D01*
X155628133Y-107706503D01*
X155553204Y-107706503D01*
X150151257Y-107706503D01*
X150151257Y-105091245D01*
X147449115Y-105091245D01*
X147449115Y-102475987D01*
X144746973Y-102475987D01*
X144746973Y-99860729D01*
X142044829Y-99860729D01*
X142044829Y-97245472D01*
X139342680Y-97245472D01*
X139342680Y-94630207D01*
X136640538Y-94630207D01*
X136640538Y-92014949D01*
X133938390Y-92014949D01*
X133938390Y-89399692D01*
X131236254Y-89399692D01*
X131236254Y-86784434D01*
X128534100Y-86784434D01*
X128534100Y-76323401D01*
X131308834Y-76323401D01*
X131308834Y-86714364D01*
X134010976Y-86714364D01*
X134010976Y-89329622D01*
X136713118Y-89329622D01*
X136713118Y-91944880D01*
X139415266Y-91944880D01*
X139415266Y-94560138D01*
X142117408Y-94560138D01*
X142117408Y-97175396D01*
X144819559Y-97175396D01*
X144819559Y-99790654D01*
X147521701Y-99790654D01*
X147521701Y-102405912D01*
X150223843Y-102405912D01*
X150223843Y-105021175D01*
X155553204Y-105021175D01*
X155553204Y-102405912D01*
X158255347Y-102405912D01*
X158255347Y-99790654D01*
X160957488Y-99790654D01*
X160957488Y-97175396D01*
X163659632Y-97175396D01*
X163659632Y-94560138D01*
X166361780Y-94560138D01*
X166361780Y-91944880D01*
X169063924Y-91944880D01*
X169063924Y-89329622D01*
X171762556Y-89329622D01*
X171762556Y-86714364D01*
X174464700Y-86714364D01*
X174464700Y-76323401D01*
X171762556Y-76323401D01*
X171762556Y-73708143D01*
X169060413Y-73708143D01*
X169060413Y-71092885D01*
X158327939Y-71092885D01*
X158327939Y-73708143D01*
X155625795Y-73708143D01*
X155625795Y-76323401D01*
X150148914Y-76323401D01*
X150148914Y-73708143D01*
X147446771Y-73708143D01*
X147446771Y-71092885D01*
X136713118Y-71092885D01*
X136713118Y-73708143D01*
X134010976Y-73708143D01*
X134010976Y-76323401D01*
X131308834Y-76323401D01*
X128534100Y-76323401D01*
X128534100Y-76253331D01*
X131236254Y-76253331D01*
X131236254Y-73638067D01*
X134010976Y-73638067D01*
X134010976Y-71022809D01*
X136640532Y-71022809D01*
X136640532Y-68407551D01*
X147521701Y-68407551D01*
X147521701Y-71022809D01*
G37*
G36*
X142119752Y-76323401D02*
G01*
X139417604Y-76323401D01*
X139417604Y-78796257D01*
X136717805Y-78796257D01*
X136717805Y-84024512D01*
X133943072Y-84024512D01*
X133943072Y-78723924D01*
X136642876Y-78723924D01*
X136642876Y-76108667D01*
X139345018Y-76108667D01*
X139345018Y-73638067D01*
X142119752Y-73638067D01*
X142119752Y-76323401D01*
G37*
%TD*%
D11*
%TO.C,R2*%
X143796967Y-74389825D03*
X150703033Y-77610177D03*
%TD*%
D12*
%TO.C,Q3*%
X164150000Y-80540000D03*
D13*
X162080000Y-79270000D03*
X164150000Y-78000000D03*
%TD*%
D11*
%TO.C,R4*%
X167500000Y-88120000D03*
X167500000Y-80500000D03*
%TD*%
D12*
%TO.C,Q1*%
X141580000Y-77980000D03*
D14*
X143650000Y-79250000D03*
X141580000Y-80520000D03*
%TD*%
D11*
%TO.C,R5*%
X164750000Y-90000000D03*
X159361846Y-95388154D03*
%TD*%
%TO.C,R1*%
X162500000Y-74389826D03*
X155593934Y-77610178D03*
%TD*%
D15*
%TO.C,Q2*%
X151730000Y-82170000D03*
D16*
X153000000Y-80100000D03*
X154270000Y-82170000D03*
%TD*%
D17*
%TO.C,C1*%
X151817621Y-102000000D03*
D18*
X154317621Y-102000000D03*
%TD*%
D11*
%TO.C,R3*%
X138500000Y-88250000D03*
X138500000Y-80630000D03*
%TD*%
D18*
%TO.C,C2*%
X171500000Y-82500000D03*
X171500000Y-80000000D03*
%TD*%
D11*
%TO.C,R7*%
X149130000Y-97000000D03*
X156750000Y-97000000D03*
%TD*%
D19*
%TO.C,D1*%
X151725000Y-89000000D03*
D20*
X154265000Y-89000000D03*
%TD*%
D11*
%TO.C,R6*%
X141055923Y-90055923D03*
X146444077Y-95444077D03*
%TD*%
D21*
%TO.C,BT1*%
X163200481Y-85749998D03*
D22*
X143200481Y-85749998D03*
%TD*%
M02*
