%TF.GenerationSoftware,KiCad,Pcbnew,9.0.7*%
%TF.CreationDate,2026-01-11T09:41:46+01:00*%
%TF.ProjectId,heartbeatTHT,68656172-7462-4656-9174-5448542e6b69,rev?*%
%TF.SameCoordinates,Original*%
%TF.FileFunction,Copper,L1,Top*%
%TF.FilePolarity,Positive*%
%FSLAX46Y46*%
G04 Gerber Fmt 4.6, Leading zero omitted, Abs format (unit mm)*
G04 Created by KiCad (PCBNEW 9.0.7) date 2026-01-11 09:41:46*
%MOMM*%
%LPD*%
G01*
G04 APERTURE LIST*
G04 Aperture macros list*
%AMRoundRect*
0 Rectangle with rounded corners*
0 $1 Rounding radius*
0 $2 $3 $4 $5 $6 $7 $8 $9 X,Y pos of 4 corners*
0 Add a 4 corners polygon primitive as box body*
4,1,4,$2,$3,$4,$5,$6,$7,$8,$9,$2,$3,0*
0 Add four circle primitives for the rounded corners*
1,1,$1+$1,$2,$3*
1,1,$1+$1,$4,$5*
1,1,$1+$1,$6,$7*
1,1,$1+$1,$8,$9*
0 Add four rect primitives between the rounded corners*
20,1,$1+$1,$2,$3,$4,$5,0*
20,1,$1+$1,$4,$5,$6,$7,0*
20,1,$1+$1,$6,$7,$8,$9,0*
20,1,$1+$1,$8,$9,$2,$3,0*%
G04 Aperture macros list end*
%TA.AperFunction,EtchedComponent*%
%ADD10C,0.000000*%
%TD*%
%TA.AperFunction,ComponentPad*%
%ADD11C,2.000000*%
%TD*%
%TA.AperFunction,ComponentPad*%
%ADD12R,1.800000X1.100000*%
%TD*%
%TA.AperFunction,ComponentPad*%
%ADD13RoundRect,0.275000X0.625000X-0.275000X0.625000X0.275000X-0.625000X0.275000X-0.625000X-0.275000X0*%
%TD*%
%TA.AperFunction,ComponentPad*%
%ADD14RoundRect,0.275000X-0.625000X0.275000X-0.625000X-0.275000X0.625000X-0.275000X0.625000X0.275000X0*%
%TD*%
%TA.AperFunction,ComponentPad*%
%ADD15R,1.100000X1.800000*%
%TD*%
%TA.AperFunction,ComponentPad*%
%ADD16RoundRect,0.275000X-0.275000X-0.625000X0.275000X-0.625000X0.275000X0.625000X-0.275000X0.625000X0*%
%TD*%
%TA.AperFunction,ComponentPad*%
%ADD17RoundRect,0.250000X-0.550000X-0.550000X0.550000X-0.550000X0.550000X0.550000X-0.550000X0.550000X0*%
%TD*%
%TA.AperFunction,ComponentPad*%
%ADD18C,1.600000*%
%TD*%
%TA.AperFunction,ComponentPad*%
%ADD19R,1.800000X1.800000*%
%TD*%
%TA.AperFunction,ComponentPad*%
%ADD20C,1.800000*%
%TD*%
%TA.AperFunction,ComponentPad*%
%ADD21R,3.000000X3.000000*%
%TD*%
%TA.AperFunction,ComponentPad*%
%ADD22C,3.000000*%
%TD*%
%TA.AperFunction,Conductor*%
%ADD23C,0.500000*%
%TD*%
G04 APERTURE END LIST*
D10*
%TA.AperFunction,EtchedComponent*%
%TO.C,heart*%
G36*
X147521705Y-71022809D02*
G01*
X150223846Y-71022809D01*
X150223846Y-73638067D01*
X155553204Y-73638067D01*
X155553204Y-71022809D01*
X158255345Y-71022809D01*
X158255345Y-68407550D01*
X169136600Y-68407550D01*
X169136600Y-71022809D01*
X171838676Y-71022809D01*
X171838676Y-73638067D01*
X174540820Y-73638067D01*
X174543140Y-73638067D01*
X174543140Y-76253328D01*
X177245281Y-76253328D01*
X177245281Y-86784436D01*
X174543140Y-86784436D01*
X174543140Y-89399694D01*
X171840996Y-89399694D01*
X171840996Y-92014952D01*
X169138855Y-92014952D01*
X169138855Y-94630209D01*
X166436709Y-94630209D01*
X166436709Y-97245470D01*
X163734566Y-97245470D01*
X163734566Y-99860728D01*
X161032423Y-99860728D01*
X161032423Y-102475986D01*
X158330274Y-102475986D01*
X158330274Y-105091246D01*
X155628133Y-105091246D01*
X155628133Y-107706506D01*
X155553204Y-107706506D01*
X150151255Y-107706506D01*
X150151255Y-105091246D01*
X147449114Y-105091246D01*
X147449114Y-102475986D01*
X144746970Y-102475986D01*
X144746970Y-99860728D01*
X142044830Y-99860728D01*
X142044830Y-97245470D01*
X139342681Y-97245470D01*
X139342681Y-94630209D01*
X136640539Y-94630209D01*
X136640539Y-92014952D01*
X133938396Y-92014952D01*
X133938396Y-89399694D01*
X131236253Y-89399694D01*
X131236253Y-86784436D01*
X128534105Y-86784436D01*
X128534105Y-76323400D01*
X131308839Y-76323400D01*
X131308839Y-86714363D01*
X134010981Y-86714363D01*
X134010981Y-89329621D01*
X136713124Y-89329621D01*
X136713124Y-91944879D01*
X139415272Y-91944879D01*
X139415272Y-94560139D01*
X142117413Y-94560139D01*
X142117413Y-97175397D01*
X144819557Y-97175397D01*
X144819557Y-99790655D01*
X147521705Y-99790655D01*
X147521705Y-102405913D01*
X150223846Y-102405913D01*
X150223846Y-105021176D01*
X155553204Y-105021176D01*
X155553204Y-102405913D01*
X158255345Y-102405913D01*
X158255345Y-99790655D01*
X160957493Y-99790655D01*
X160957493Y-97175397D01*
X163659637Y-97175397D01*
X163659637Y-94560139D01*
X166361778Y-94560139D01*
X166361778Y-91944879D01*
X169063926Y-91944879D01*
X169063926Y-89329621D01*
X171762554Y-89329621D01*
X171762554Y-86714363D01*
X174464697Y-86714363D01*
X174464697Y-76323400D01*
X171762554Y-76323400D01*
X171762554Y-73708143D01*
X169060413Y-73708143D01*
X169060413Y-71092884D01*
X158327936Y-71092884D01*
X158327936Y-73708143D01*
X155625795Y-73708143D01*
X155625795Y-76323400D01*
X150148917Y-76323400D01*
X150148917Y-73708143D01*
X147446773Y-73708143D01*
X147446773Y-71092884D01*
X136713124Y-71092884D01*
X136713124Y-73708143D01*
X134010981Y-73708143D01*
X134010981Y-76323400D01*
X131308839Y-76323400D01*
X128534105Y-76323400D01*
X128534105Y-76253328D01*
X131236253Y-76253328D01*
X131236253Y-73638067D01*
X134010981Y-73638067D01*
X134010981Y-71022809D01*
X136640538Y-71022809D01*
X136640538Y-68407550D01*
X147521705Y-68407550D01*
X147521705Y-71022809D01*
G37*
%TD.AperFunction*%
%TA.AperFunction,EtchedComponent*%
G36*
X142119759Y-76323400D02*
G01*
X139417609Y-76323400D01*
X139417609Y-78796255D01*
X136717811Y-78796255D01*
X136717811Y-84024512D01*
X133943077Y-84024512D01*
X133943077Y-78723923D01*
X136642882Y-78723923D01*
X136642882Y-76108664D01*
X139345024Y-76108664D01*
X139345024Y-73638067D01*
X142119759Y-73638067D01*
X142119759Y-76323400D01*
G37*
%TD.AperFunction*%
%TD*%
D11*
%TO.P,R2,1*%
%TO.N,Net-(Q1-C)*%
X143796967Y-74389825D03*
%TO.P,R2,2*%
%TO.N,Net-(Q2-B)*%
X150703033Y-77610177D03*
%TD*%
D12*
%TO.P,Q3,1,C*%
%TO.N,Net-(Q3-C)*%
X164150000Y-80540000D03*
D13*
%TO.P,Q3,2,B*%
%TO.N,Net-(Q3-B)*%
X162080000Y-79270000D03*
%TO.P,Q3,3,E*%
%TO.N,Net-(BT1-+)*%
X164150000Y-78000000D03*
%TD*%
D11*
%TO.P,R4,1*%
%TO.N,Net-(Q3-C)*%
X167500000Y-88120000D03*
%TO.P,R4,2*%
%TO.N,GND*%
X167500000Y-80500000D03*
%TD*%
D12*
%TO.P,Q1,1,C*%
%TO.N,Net-(Q1-C)*%
X141580000Y-77980000D03*
D14*
%TO.P,Q1,2,B*%
%TO.N,Net-(Q1-B)*%
X143650000Y-79250000D03*
%TO.P,Q1,3,E*%
%TO.N,GND*%
X141580000Y-80520000D03*
%TD*%
D11*
%TO.P,R5,1*%
%TO.N,Net-(BT1-+)*%
X164750000Y-90000000D03*
%TO.P,R5,2*%
%TO.N,Net-(D1-A)*%
X159361846Y-95388154D03*
%TD*%
%TO.P,R1,1*%
%TO.N,Net-(BT1-+)*%
X162500000Y-74389826D03*
%TO.P,R1,2*%
%TO.N,Net-(Q1-C)*%
X155593934Y-77610178D03*
%TD*%
D15*
%TO.P,Q2,1,C*%
%TO.N,Net-(Q2-C)*%
X151730000Y-82170000D03*
D16*
%TO.P,Q2,2,B*%
%TO.N,Net-(Q2-B)*%
X153000000Y-80100000D03*
%TO.P,Q2,3,E*%
%TO.N,GND*%
X154270000Y-82170000D03*
%TD*%
D17*
%TO.P,C1,1*%
%TO.N,Net-(D1-A)*%
X151817621Y-102000000D03*
D18*
%TO.P,C1,2*%
%TO.N,Net-(Q3-C)*%
X154317621Y-102000000D03*
%TD*%
D11*
%TO.P,R3,1*%
%TO.N,Net-(Q2-C)*%
X138500000Y-88250000D03*
%TO.P,R3,2*%
%TO.N,Net-(Q3-B)*%
X138500000Y-80630000D03*
%TD*%
D18*
%TO.P,C2,1*%
%TO.N,Net-(C2-Pad1)*%
X171500000Y-82500000D03*
%TO.P,C2,2*%
%TO.N,Net-(Q3-C)*%
X171500000Y-80000000D03*
%TD*%
D11*
%TO.P,R7,1*%
%TO.N,Net-(Q2-B)*%
X149130000Y-97000000D03*
%TO.P,R7,2*%
%TO.N,Net-(C2-Pad1)*%
X156750000Y-97000000D03*
%TD*%
D19*
%TO.P,D1,1,K*%
%TO.N,GND*%
X151725000Y-89000000D03*
D20*
%TO.P,D1,2,A*%
%TO.N,Net-(D1-A)*%
X154265000Y-89000000D03*
%TD*%
D11*
%TO.P,R6,1*%
%TO.N,Net-(Q1-B)*%
X141055923Y-90055923D03*
%TO.P,R6,2*%
%TO.N,Net-(Q3-C)*%
X146444077Y-95444077D03*
%TD*%
D21*
%TO.P,BT1,1,+*%
%TO.N,Net-(BT1-+)*%
X163200481Y-85749998D03*
D22*
%TO.P,BT1,2,-*%
%TO.N,GND*%
X143200481Y-85749998D03*
%TD*%
D23*
%TO.N,Net-(BT1-+)*%
X165501000Y-79751000D02*
X163750000Y-78000000D01*
X163200481Y-85749998D02*
X165501000Y-83449479D01*
X165501000Y-83449479D02*
X165501000Y-79751000D01*
%TD*%
%TA.AperFunction,Conductor*%
%TO.N,GND*%
G36*
X146884312Y-71618069D02*
G01*
X146930067Y-71670873D01*
X146941273Y-71722384D01*
X146941273Y-73708145D01*
X146946417Y-73780083D01*
X146986955Y-73918137D01*
X147064740Y-74039173D01*
X147064744Y-74039177D01*
X147173473Y-74133392D01*
X147173479Y-74133397D01*
X147213947Y-74151878D01*
X147304353Y-74193166D01*
X147304356Y-74193166D01*
X147304357Y-74193167D01*
X147446773Y-74213643D01*
X149519417Y-74213643D01*
X149586456Y-74233328D01*
X149632211Y-74286132D01*
X149643417Y-74337643D01*
X149643417Y-76323402D01*
X149648562Y-76395342D01*
X149661263Y-76438599D01*
X149661263Y-76508469D01*
X149629968Y-76561213D01*
X149558519Y-76632663D01*
X149558518Y-76632664D01*
X149558516Y-76632667D01*
X149505652Y-76705428D01*
X149419690Y-76823743D01*
X149312466Y-77034180D01*
X149239479Y-77258808D01*
X149202533Y-77492079D01*
X149202533Y-77728274D01*
X149239479Y-77961545D01*
X149312466Y-78186173D01*
X149419690Y-78396610D01*
X149558516Y-78587687D01*
X149725523Y-78754694D01*
X149916600Y-78893520D01*
X149991024Y-78931441D01*
X150127036Y-79000743D01*
X150127038Y-79000743D01*
X150127041Y-79000745D01*
X150218611Y-79030498D01*
X150351664Y-79073730D01*
X150584936Y-79110677D01*
X150584941Y-79110677D01*
X150821130Y-79110677D01*
X151054401Y-79073730D01*
X151094238Y-79060786D01*
X151279025Y-79000745D01*
X151489466Y-78893520D01*
X151680543Y-78754694D01*
X151847550Y-78587687D01*
X151986376Y-78396610D01*
X152093601Y-78186169D01*
X152166586Y-77961545D01*
X152203533Y-77728274D01*
X152203533Y-77492079D01*
X152166586Y-77258808D01*
X152106036Y-77072456D01*
X152093601Y-77034185D01*
X152093599Y-77034181D01*
X152093599Y-77034180D01*
X152080868Y-77009195D01*
X152067972Y-76940526D01*
X152094248Y-76875785D01*
X152151354Y-76835528D01*
X152191353Y-76828900D01*
X154105614Y-76828900D01*
X154172653Y-76848585D01*
X154218408Y-76901389D01*
X154228352Y-76970547D01*
X154216099Y-77009194D01*
X154203368Y-77034178D01*
X154130380Y-77258809D01*
X154093434Y-77492080D01*
X154093434Y-77728275D01*
X154130380Y-77961546D01*
X154203367Y-78186174D01*
X154270818Y-78318552D01*
X154310591Y-78396611D01*
X154449417Y-78587688D01*
X154616424Y-78754695D01*
X154807501Y-78893521D01*
X154881923Y-78931441D01*
X155017937Y-79000744D01*
X155017939Y-79000744D01*
X155017942Y-79000746D01*
X155109509Y-79030498D01*
X155242565Y-79073731D01*
X155475837Y-79110678D01*
X155475842Y-79110678D01*
X155712031Y-79110678D01*
X155945302Y-79073731D01*
X155985142Y-79060786D01*
X156169926Y-79000746D01*
X156266693Y-78951441D01*
X160679500Y-78951441D01*
X160679500Y-79588558D01*
X160694157Y-79718648D01*
X160694159Y-79718658D01*
X160751877Y-79883604D01*
X160751878Y-79883606D01*
X160844853Y-80031576D01*
X160968424Y-80155147D01*
X161116394Y-80248122D01*
X161281343Y-80305841D01*
X161281349Y-80305841D01*
X161281351Y-80305842D01*
X161322750Y-80310506D01*
X161411442Y-80320499D01*
X161411445Y-80320500D01*
X162625500Y-80320500D01*
X162692539Y-80340185D01*
X162738294Y-80392989D01*
X162749500Y-80444500D01*
X162749500Y-81137870D01*
X162749501Y-81137876D01*
X162755908Y-81197483D01*
X162806202Y-81332328D01*
X162806206Y-81332335D01*
X162892452Y-81447544D01*
X162892455Y-81447547D01*
X163007664Y-81533793D01*
X163007671Y-81533797D01*
X163142517Y-81584091D01*
X163142516Y-81584091D01*
X163149444Y-81584835D01*
X163202127Y-81590500D01*
X164626500Y-81590499D01*
X164693539Y-81610184D01*
X164739294Y-81662987D01*
X164750500Y-81714499D01*
X164750500Y-83087249D01*
X164730815Y-83154288D01*
X164714181Y-83174930D01*
X164175931Y-83713179D01*
X164114608Y-83746664D01*
X164088250Y-83749498D01*
X161652610Y-83749498D01*
X161652604Y-83749499D01*
X161592997Y-83755906D01*
X161458152Y-83806200D01*
X161458145Y-83806204D01*
X161342936Y-83892450D01*
X161342933Y-83892453D01*
X161256687Y-84007662D01*
X161256683Y-84007669D01*
X161206389Y-84142515D01*
X161199982Y-84202114D01*
X161199981Y-84202133D01*
X161199981Y-87297868D01*
X161199982Y-87297874D01*
X161206389Y-87357481D01*
X161256683Y-87492326D01*
X161256687Y-87492333D01*
X161342933Y-87607542D01*
X161342936Y-87607545D01*
X161458145Y-87693791D01*
X161458152Y-87693795D01*
X161592998Y-87744089D01*
X161592997Y-87744089D01*
X161599925Y-87744833D01*
X161652608Y-87750498D01*
X164748353Y-87750497D01*
X164807964Y-87744089D01*
X164942812Y-87693794D01*
X165058027Y-87607544D01*
X165144277Y-87492329D01*
X165194572Y-87357481D01*
X165200981Y-87297871D01*
X165200980Y-84862227D01*
X165220665Y-84795189D01*
X165237299Y-84774547D01*
X166083948Y-83927898D01*
X166083951Y-83927895D01*
X166166084Y-83804974D01*
X166222658Y-83668392D01*
X166233819Y-83612284D01*
X166251500Y-83523399D01*
X166251500Y-81446307D01*
X166271185Y-81379268D01*
X166287819Y-81358626D01*
X167100000Y-80546445D01*
X167100000Y-80552661D01*
X167127259Y-80654394D01*
X167179920Y-80745606D01*
X167254394Y-80820080D01*
X167345606Y-80872741D01*
X167447339Y-80900000D01*
X167453554Y-80900000D01*
X166630893Y-81722658D01*
X166713828Y-81782914D01*
X166924197Y-81890102D01*
X167148752Y-81963065D01*
X167148751Y-81963065D01*
X167381948Y-82000000D01*
X167618052Y-82000000D01*
X167851247Y-81963065D01*
X168075802Y-81890102D01*
X168286163Y-81782918D01*
X168286169Y-81782914D01*
X168369104Y-81722658D01*
X168369105Y-81722658D01*
X167546446Y-80900000D01*
X167552661Y-80900000D01*
X167654394Y-80872741D01*
X167745606Y-80820080D01*
X167820080Y-80745606D01*
X167872741Y-80654394D01*
X167900000Y-80552661D01*
X167900000Y-80546447D01*
X168722658Y-81369105D01*
X168722658Y-81369104D01*
X168782914Y-81286169D01*
X168782918Y-81286163D01*
X168890102Y-81075802D01*
X168963065Y-80851247D01*
X169000000Y-80618052D01*
X169000000Y-80381947D01*
X168963065Y-80148751D01*
X168892344Y-79931094D01*
X168892343Y-79931093D01*
X168890103Y-79924198D01*
X168876575Y-79897648D01*
X170199500Y-79897648D01*
X170199500Y-80102351D01*
X170231522Y-80304534D01*
X170294781Y-80499223D01*
X170387715Y-80681613D01*
X170508028Y-80847213D01*
X170652786Y-80991971D01*
X170818388Y-81112286D01*
X170871828Y-81139516D01*
X170922623Y-81187490D01*
X170939418Y-81255312D01*
X170916880Y-81321446D01*
X170871828Y-81360484D01*
X170818388Y-81387713D01*
X170652786Y-81508028D01*
X170508028Y-81652786D01*
X170387715Y-81818386D01*
X170294781Y-82000776D01*
X170231522Y-82195465D01*
X170199500Y-82397648D01*
X170199500Y-82602351D01*
X170231522Y-82804534D01*
X170294781Y-82999223D01*
X170355233Y-83117864D01*
X170385610Y-83177483D01*
X170387715Y-83181613D01*
X170508028Y-83347213D01*
X170652786Y-83491971D01*
X170807749Y-83604556D01*
X170818390Y-83612287D01*
X170928490Y-83668386D01*
X171000776Y-83705218D01*
X171000778Y-83705218D01*
X171000781Y-83705220D01*
X171105137Y-83739127D01*
X171195465Y-83768477D01*
X171294849Y-83784218D01*
X171397648Y-83800500D01*
X171397649Y-83800500D01*
X171602351Y-83800500D01*
X171602352Y-83800500D01*
X171804534Y-83768477D01*
X171999219Y-83705220D01*
X172181610Y-83612287D01*
X172317171Y-83513797D01*
X172347213Y-83491971D01*
X172347215Y-83491968D01*
X172347219Y-83491966D01*
X172491966Y-83347219D01*
X172491968Y-83347215D01*
X172491971Y-83347213D01*
X172544732Y-83274590D01*
X172612287Y-83181610D01*
X172705220Y-82999219D01*
X172768477Y-82804534D01*
X172800500Y-82602352D01*
X172800500Y-82397648D01*
X172768477Y-82195466D01*
X172705220Y-82000781D01*
X172705218Y-82000778D01*
X172705218Y-82000776D01*
X172660668Y-81913343D01*
X172612287Y-81818390D01*
X172604556Y-81807749D01*
X172491971Y-81652786D01*
X172347213Y-81508028D01*
X172181613Y-81387715D01*
X172181612Y-81387714D01*
X172181610Y-81387713D01*
X172128171Y-81360484D01*
X172077376Y-81312510D01*
X172060581Y-81244689D01*
X172083118Y-81178554D01*
X172128172Y-81139515D01*
X172131389Y-81137876D01*
X172181610Y-81112287D01*
X172298085Y-81027664D01*
X172347213Y-80991971D01*
X172347215Y-80991968D01*
X172347219Y-80991966D01*
X172491966Y-80847219D01*
X172491968Y-80847215D01*
X172491971Y-80847213D01*
X172563985Y-80748092D01*
X172612287Y-80681610D01*
X172705220Y-80499219D01*
X172768477Y-80304534D01*
X172800500Y-80102352D01*
X172800500Y-79897648D01*
X172768983Y-79698658D01*
X172768477Y-79695465D01*
X172733740Y-79588558D01*
X172705220Y-79500781D01*
X172705218Y-79500778D01*
X172705218Y-79500776D01*
X172669889Y-79431441D01*
X172612287Y-79318390D01*
X172582461Y-79277338D01*
X172491971Y-79152786D01*
X172347213Y-79008028D01*
X172181613Y-78887715D01*
X172181612Y-78887714D01*
X172181610Y-78887713D01*
X172102984Y-78847651D01*
X171999223Y-78794781D01*
X171804534Y-78731522D01*
X171629995Y-78703878D01*
X171602352Y-78699500D01*
X171397648Y-78699500D01*
X171373329Y-78703351D01*
X171195465Y-78731522D01*
X171000776Y-78794781D01*
X170818386Y-78887715D01*
X170652786Y-79008028D01*
X170508028Y-79152786D01*
X170387715Y-79318386D01*
X170294781Y-79500776D01*
X170231522Y-79695465D01*
X170199500Y-79897648D01*
X168876575Y-79897648D01*
X168782914Y-79713828D01*
X168722658Y-79630894D01*
X168722658Y-79630893D01*
X167900000Y-80453552D01*
X167900000Y-80447339D01*
X167872741Y-80345606D01*
X167820080Y-80254394D01*
X167745606Y-80179920D01*
X167654394Y-80127259D01*
X167552661Y-80100000D01*
X167546447Y-80100000D01*
X168369105Y-79277340D01*
X168369104Y-79277338D01*
X168286174Y-79217087D01*
X168075802Y-79109897D01*
X167851247Y-79036934D01*
X167851248Y-79036934D01*
X167618052Y-79000000D01*
X167381948Y-79000000D01*
X167148752Y-79036934D01*
X166924197Y-79109897D01*
X166713830Y-79217084D01*
X166630894Y-79277340D01*
X167453554Y-80100000D01*
X167447339Y-80100000D01*
X167345606Y-80127259D01*
X167254394Y-80179920D01*
X167179920Y-80254394D01*
X167127259Y-80345606D01*
X167100000Y-80447339D01*
X167100000Y-80453553D01*
X166260212Y-79613765D01*
X166232656Y-79571870D01*
X166228481Y-79561363D01*
X166222658Y-79532087D01*
X166166084Y-79395505D01*
X166114558Y-79318390D01*
X166114558Y-79318389D01*
X166083950Y-79272581D01*
X166083947Y-79272578D01*
X165519439Y-78708071D01*
X165485954Y-78646748D01*
X165490079Y-78579435D01*
X165514927Y-78508424D01*
X165535841Y-78448657D01*
X165550500Y-78318552D01*
X165550500Y-77681448D01*
X165535841Y-77551343D01*
X165478122Y-77386394D01*
X165385147Y-77238424D01*
X165261576Y-77114853D01*
X165113606Y-77021878D01*
X165113605Y-77021877D01*
X165113604Y-77021877D01*
X164948658Y-76964159D01*
X164948648Y-76964157D01*
X164818558Y-76949500D01*
X164818552Y-76949500D01*
X163481448Y-76949500D01*
X163481441Y-76949500D01*
X163351351Y-76964157D01*
X163351341Y-76964159D01*
X163186395Y-77021877D01*
X163038423Y-77114853D01*
X162914853Y-77238423D01*
X162821877Y-77386395D01*
X162764159Y-77551341D01*
X162764157Y-77551351D01*
X162749500Y-77681441D01*
X162749500Y-78095500D01*
X162729815Y-78162539D01*
X162677011Y-78208294D01*
X162625500Y-78219500D01*
X161411441Y-78219500D01*
X161281351Y-78234157D01*
X161281341Y-78234159D01*
X161116395Y-78291877D01*
X160968423Y-78384853D01*
X160844853Y-78508423D01*
X160751877Y-78656395D01*
X160694159Y-78821341D01*
X160694157Y-78821351D01*
X160679500Y-78951441D01*
X156266693Y-78951441D01*
X156380367Y-78893521D01*
X156571444Y-78754695D01*
X156738451Y-78587688D01*
X156877277Y-78396611D01*
X156984502Y-78186170D01*
X157057487Y-77961546D01*
X157057487Y-77961545D01*
X157094434Y-77728275D01*
X157094434Y-77492080D01*
X157057487Y-77258809D01*
X157010712Y-77114853D01*
X156984502Y-77034186D01*
X156984500Y-77034183D01*
X156984500Y-77034181D01*
X156921132Y-76909815D01*
X156877277Y-76823745D01*
X156738451Y-76632668D01*
X156571444Y-76465661D01*
X156380367Y-76326835D01*
X156198999Y-76234423D01*
X156148204Y-76186449D01*
X156131295Y-76123939D01*
X156131295Y-74337643D01*
X156150650Y-74271728D01*
X160999500Y-74271728D01*
X160999500Y-74507923D01*
X161036446Y-74741194D01*
X161109433Y-74965822D01*
X161216656Y-75176258D01*
X161216657Y-75176259D01*
X161355483Y-75367336D01*
X161522490Y-75534343D01*
X161713567Y-75673169D01*
X161812991Y-75723828D01*
X161924003Y-75780392D01*
X161924005Y-75780392D01*
X161924008Y-75780394D01*
X162044412Y-75819515D01*
X162148631Y-75853379D01*
X162381903Y-75890326D01*
X162381908Y-75890326D01*
X162618097Y-75890326D01*
X162851368Y-75853379D01*
X162882095Y-75843395D01*
X163075992Y-75780394D01*
X163286433Y-75673169D01*
X163477510Y-75534343D01*
X163644517Y-75367336D01*
X163783343Y-75176259D01*
X163890568Y-74965818D01*
X163963553Y-74741194D01*
X163963553Y-74741193D01*
X164000500Y-74507923D01*
X164000500Y-74271728D01*
X163963553Y-74038457D01*
X163924458Y-73918135D01*
X163890568Y-73813834D01*
X163890566Y-73813831D01*
X163890566Y-73813829D01*
X163801010Y-73638067D01*
X163783343Y-73603393D01*
X163644517Y-73412316D01*
X163477510Y-73245309D01*
X163286433Y-73106483D01*
X163286431Y-73106482D01*
X163075996Y-72999259D01*
X162851368Y-72926272D01*
X162618097Y-72889326D01*
X162618092Y-72889326D01*
X162381908Y-72889326D01*
X162381903Y-72889326D01*
X162148631Y-72926272D01*
X161924003Y-72999259D01*
X161713566Y-73106483D01*
X161614791Y-73178248D01*
X161522490Y-73245309D01*
X161522488Y-73245311D01*
X161522487Y-73245311D01*
X161355485Y-73412313D01*
X161355485Y-73412314D01*
X161355483Y-73412316D01*
X161335999Y-73439134D01*
X161216657Y-73603392D01*
X161109433Y-73813829D01*
X161036446Y-74038457D01*
X160999500Y-74271728D01*
X156150650Y-74271728D01*
X156150980Y-74270604D01*
X156203784Y-74224849D01*
X156255295Y-74213643D01*
X158327936Y-74213643D01*
X158399876Y-74208498D01*
X158537928Y-74167962D01*
X158658968Y-74090174D01*
X158753190Y-73981437D01*
X158812960Y-73850559D01*
X158833436Y-73708143D01*
X158833436Y-71722384D01*
X158853121Y-71655345D01*
X158905925Y-71609590D01*
X158957436Y-71598384D01*
X168430913Y-71598384D01*
X168497952Y-71618069D01*
X168543707Y-71670873D01*
X168554913Y-71722384D01*
X168554913Y-73708145D01*
X168560057Y-73780083D01*
X168600595Y-73918137D01*
X168678380Y-74039173D01*
X168678384Y-74039177D01*
X168787113Y-74133392D01*
X168787119Y-74133397D01*
X168827587Y-74151878D01*
X168917993Y-74193166D01*
X168917996Y-74193166D01*
X168917997Y-74193167D01*
X169060413Y-74213643D01*
X171133054Y-74213643D01*
X171200093Y-74233328D01*
X171245848Y-74286132D01*
X171257054Y-74337643D01*
X171257054Y-76323402D01*
X171262198Y-76395340D01*
X171302736Y-76533394D01*
X171380521Y-76654430D01*
X171380525Y-76654434D01*
X171461151Y-76724297D01*
X171489260Y-76748654D01*
X171529728Y-76767135D01*
X171620134Y-76808423D01*
X171620137Y-76808423D01*
X171620138Y-76808424D01*
X171762554Y-76828900D01*
X173835197Y-76828900D01*
X173902236Y-76848585D01*
X173947991Y-76901389D01*
X173959197Y-76952900D01*
X173959197Y-86084863D01*
X173939512Y-86151902D01*
X173886708Y-86197657D01*
X173835197Y-86208863D01*
X171762551Y-86208863D01*
X171690613Y-86214007D01*
X171552559Y-86254545D01*
X171431523Y-86332330D01*
X171431519Y-86332334D01*
X171337304Y-86441063D01*
X171337298Y-86441072D01*
X171277530Y-86571943D01*
X171277529Y-86571948D01*
X171257054Y-86714362D01*
X171257054Y-88700121D01*
X171237369Y-88767160D01*
X171184565Y-88812915D01*
X171133054Y-88824121D01*
X169063916Y-88824121D01*
X169027501Y-88826725D01*
X168959229Y-88811872D01*
X168909824Y-88762465D01*
X168894974Y-88694192D01*
X168900725Y-88664731D01*
X168963553Y-88471368D01*
X168964974Y-88462394D01*
X169000500Y-88238097D01*
X169000500Y-88001902D01*
X168963553Y-87768631D01*
X168911212Y-87607544D01*
X168890568Y-87544008D01*
X168890566Y-87544005D01*
X168890566Y-87544003D01*
X168825598Y-87416497D01*
X168783343Y-87333567D01*
X168644517Y-87142490D01*
X168477510Y-86975483D01*
X168286433Y-86836657D01*
X168252278Y-86819254D01*
X168075996Y-86729433D01*
X167851368Y-86656446D01*
X167618097Y-86619500D01*
X167618092Y-86619500D01*
X167381908Y-86619500D01*
X167381903Y-86619500D01*
X167148631Y-86656446D01*
X166924003Y-86729433D01*
X166713566Y-86836657D01*
X166607183Y-86913950D01*
X166522490Y-86975483D01*
X166522488Y-86975485D01*
X166522487Y-86975485D01*
X166355485Y-87142487D01*
X166355485Y-87142488D01*
X166355483Y-87142490D01*
X166306659Y-87209690D01*
X166216657Y-87333566D01*
X166109433Y-87544003D01*
X166036446Y-87768631D01*
X165999500Y-88001902D01*
X165999500Y-88238097D01*
X166036446Y-88471368D01*
X166109433Y-88695996D01*
X166201244Y-88876184D01*
X166216657Y-88906433D01*
X166355483Y-89097510D01*
X166522490Y-89264517D01*
X166713567Y-89403343D01*
X166803355Y-89449092D01*
X166924003Y-89510566D01*
X166924005Y-89510566D01*
X166924008Y-89510568D01*
X166980536Y-89528935D01*
X167148631Y-89583553D01*
X167381903Y-89620500D01*
X167381908Y-89620500D01*
X167618097Y-89620500D01*
X167851368Y-89583553D01*
X167896776Y-89568799D01*
X168075992Y-89510568D01*
X168286433Y-89403343D01*
X168361541Y-89348773D01*
X168427346Y-89325294D01*
X168495400Y-89341119D01*
X168544095Y-89391225D01*
X168558426Y-89449092D01*
X168558426Y-91315379D01*
X168538741Y-91382418D01*
X168485937Y-91428173D01*
X168434426Y-91439379D01*
X166361775Y-91439379D01*
X166289837Y-91444523D01*
X166151783Y-91485061D01*
X166030747Y-91562846D01*
X166030743Y-91562850D01*
X165936528Y-91671579D01*
X165936522Y-91671588D01*
X165876754Y-91802459D01*
X165876753Y-91802464D01*
X165856278Y-91944878D01*
X165856278Y-93930639D01*
X165836593Y-93997678D01*
X165783789Y-94043433D01*
X165732278Y-94054639D01*
X163659634Y-94054639D01*
X163587696Y-94059783D01*
X163449642Y-94100321D01*
X163328606Y-94178106D01*
X163328602Y-94178110D01*
X163234387Y-94286839D01*
X163234381Y-94286848D01*
X163174613Y-94417719D01*
X163174612Y-94417724D01*
X163154137Y-94560138D01*
X163154137Y-96545897D01*
X163134452Y-96612936D01*
X163081648Y-96658691D01*
X163030137Y-96669897D01*
X160957490Y-96669897D01*
X160885552Y-96675041D01*
X160747498Y-96715579D01*
X160626462Y-96793364D01*
X160626458Y-96793368D01*
X160532243Y-96902097D01*
X160532237Y-96902106D01*
X160472469Y-97032977D01*
X160472468Y-97032982D01*
X160451993Y-97175396D01*
X160451993Y-99161155D01*
X160432308Y-99228194D01*
X160379504Y-99273949D01*
X160327993Y-99285155D01*
X158255342Y-99285155D01*
X158183404Y-99290299D01*
X158045350Y-99330837D01*
X157924314Y-99408622D01*
X157924310Y-99408626D01*
X157830095Y-99517355D01*
X157830089Y-99517364D01*
X157770321Y-99648235D01*
X157770320Y-99648240D01*
X157749845Y-99790654D01*
X157749845Y-101776413D01*
X157730160Y-101843452D01*
X157677356Y-101889207D01*
X157625845Y-101900413D01*
X155724464Y-101900413D01*
X155657425Y-101880728D01*
X155611670Y-101827924D01*
X155601991Y-101795811D01*
X155598919Y-101776413D01*
X155586098Y-101695466D01*
X155522841Y-101500781D01*
X155522839Y-101500778D01*
X155522839Y-101500776D01*
X155471486Y-101399991D01*
X155429908Y-101318390D01*
X155381170Y-101251307D01*
X155309592Y-101152786D01*
X155164834Y-101008028D01*
X154999234Y-100887715D01*
X154999233Y-100887714D01*
X154999231Y-100887713D01*
X154939519Y-100857288D01*
X154816844Y-100794781D01*
X154622155Y-100731522D01*
X154447616Y-100703878D01*
X154419973Y-100699500D01*
X154215269Y-100699500D01*
X154190950Y-100703351D01*
X154013086Y-100731522D01*
X153818397Y-100794781D01*
X153636007Y-100887715D01*
X153470407Y-101008028D01*
X153325653Y-101152782D01*
X153325652Y-101152784D01*
X153285068Y-101208642D01*
X153229738Y-101251307D01*
X153160124Y-101257285D01*
X153098330Y-101224678D01*
X153067046Y-101174760D01*
X153052435Y-101130666D01*
X152960333Y-100981344D01*
X152836277Y-100857288D01*
X152686955Y-100765186D01*
X152520418Y-100710001D01*
X152520416Y-100710000D01*
X152417631Y-100699500D01*
X151217619Y-100699500D01*
X151217602Y-100699501D01*
X151114824Y-100710000D01*
X151114821Y-100710001D01*
X150948289Y-100765185D01*
X150948284Y-100765187D01*
X150798963Y-100857289D01*
X150674910Y-100981342D01*
X150582808Y-101130663D01*
X150582806Y-101130668D01*
X150575479Y-101152781D01*
X150527622Y-101297203D01*
X150527622Y-101297204D01*
X150527621Y-101297204D01*
X150517121Y-101399983D01*
X150517121Y-101799540D01*
X150497436Y-101866579D01*
X150444632Y-101912334D01*
X150375474Y-101922278D01*
X150374590Y-101922086D01*
X150223846Y-101900413D01*
X148151205Y-101900413D01*
X148084166Y-101880728D01*
X148038411Y-101827924D01*
X148027205Y-101776413D01*
X148027205Y-99790655D01*
X148027205Y-99790654D01*
X148022060Y-99718715D01*
X147981524Y-99580663D01*
X147903736Y-99459623D01*
X147844878Y-99408622D01*
X147795004Y-99365405D01*
X147795002Y-99365403D01*
X147794999Y-99365401D01*
X147794995Y-99365399D01*
X147664124Y-99305631D01*
X147664119Y-99305630D01*
X147521705Y-99285155D01*
X145449057Y-99285155D01*
X145382018Y-99265470D01*
X145336263Y-99212666D01*
X145325057Y-99161155D01*
X145325057Y-97175397D01*
X145325057Y-97175396D01*
X145319912Y-97103457D01*
X145279376Y-96965405D01*
X145225716Y-96881908D01*
X145201589Y-96844366D01*
X145201585Y-96844362D01*
X145092856Y-96750147D01*
X145092854Y-96750145D01*
X145092851Y-96750143D01*
X145092847Y-96750141D01*
X144961976Y-96690373D01*
X144961971Y-96690372D01*
X144819557Y-96669897D01*
X142746913Y-96669897D01*
X142679874Y-96650212D01*
X142634119Y-96597408D01*
X142622913Y-96545897D01*
X142622913Y-95325979D01*
X144943577Y-95325979D01*
X144943577Y-95562174D01*
X144980523Y-95795445D01*
X145053510Y-96020073D01*
X145132240Y-96174587D01*
X145160734Y-96230510D01*
X145299560Y-96421587D01*
X145466567Y-96588594D01*
X145657644Y-96727420D01*
X145757068Y-96778079D01*
X145868080Y-96834643D01*
X145868082Y-96834643D01*
X145868085Y-96834645D01*
X145988489Y-96873766D01*
X146092708Y-96907630D01*
X146325980Y-96944577D01*
X146325985Y-96944577D01*
X146562174Y-96944577D01*
X146795445Y-96907630D01*
X146812474Y-96902097D01*
X147020069Y-96834645D01*
X147230510Y-96727420D01*
X147421587Y-96588594D01*
X147453972Y-96556208D01*
X147515292Y-96522724D01*
X147584984Y-96527708D01*
X147640918Y-96569578D01*
X147665336Y-96635042D01*
X147664125Y-96663288D01*
X147629500Y-96881902D01*
X147629500Y-97118097D01*
X147666446Y-97351368D01*
X147739433Y-97575996D01*
X147828588Y-97750970D01*
X147846657Y-97786433D01*
X147985483Y-97977510D01*
X148152490Y-98144517D01*
X148343567Y-98283343D01*
X148442991Y-98334002D01*
X148554003Y-98390566D01*
X148554005Y-98390566D01*
X148554008Y-98390568D01*
X148674412Y-98429689D01*
X148778631Y-98463553D01*
X149011903Y-98500500D01*
X149011908Y-98500500D01*
X149248097Y-98500500D01*
X149481368Y-98463553D01*
X149705992Y-98390568D01*
X149916433Y-98283343D01*
X150107510Y-98144517D01*
X150274517Y-97977510D01*
X150413343Y-97786433D01*
X150520568Y-97575992D01*
X150593553Y-97351368D01*
X150604807Y-97280315D01*
X150630500Y-97118097D01*
X150630500Y-96881902D01*
X155249500Y-96881902D01*
X155249500Y-97118097D01*
X155286446Y-97351368D01*
X155359433Y-97575996D01*
X155448588Y-97750970D01*
X155466657Y-97786433D01*
X155605483Y-97977510D01*
X155772490Y-98144517D01*
X155963567Y-98283343D01*
X156062991Y-98334002D01*
X156174003Y-98390566D01*
X156174005Y-98390566D01*
X156174008Y-98390568D01*
X156294412Y-98429689D01*
X156398631Y-98463553D01*
X156631903Y-98500500D01*
X156631908Y-98500500D01*
X156868097Y-98500500D01*
X157101368Y-98463553D01*
X157325992Y-98390568D01*
X157536433Y-98283343D01*
X157727510Y-98144517D01*
X157894517Y-97977510D01*
X158033343Y-97786433D01*
X158140568Y-97575992D01*
X158213553Y-97351368D01*
X158224807Y-97280315D01*
X158250500Y-97118097D01*
X158250500Y-96881903D01*
X158229631Y-96750147D01*
X158217420Y-96673049D01*
X158226374Y-96603759D01*
X158271370Y-96550307D01*
X158338122Y-96529667D01*
X158405435Y-96548392D01*
X158412776Y-96553334D01*
X158575413Y-96671497D01*
X158661927Y-96715578D01*
X158785849Y-96778720D01*
X158785851Y-96778720D01*
X158785854Y-96778722D01*
X158830930Y-96793368D01*
X159010477Y-96851707D01*
X159243749Y-96888654D01*
X159243754Y-96888654D01*
X159479943Y-96888654D01*
X159713214Y-96851707D01*
X159735810Y-96844365D01*
X159937838Y-96778722D01*
X160148279Y-96671497D01*
X160339356Y-96532671D01*
X160506363Y-96365664D01*
X160645189Y-96174587D01*
X160752414Y-95964146D01*
X160825399Y-95739522D01*
X160829020Y-95716659D01*
X160862346Y-95506251D01*
X160862346Y-95270056D01*
X160825399Y-95036785D01*
X160787849Y-94921220D01*
X160752414Y-94812162D01*
X160752412Y-94812159D01*
X160752412Y-94812157D01*
X160673683Y-94657644D01*
X160645189Y-94601721D01*
X160506363Y-94410644D01*
X160339356Y-94243637D01*
X160148279Y-94104811D01*
X160139465Y-94100320D01*
X159937842Y-93997587D01*
X159713214Y-93924600D01*
X159479943Y-93887654D01*
X159479938Y-93887654D01*
X159243754Y-93887654D01*
X159243749Y-93887654D01*
X159010477Y-93924600D01*
X158785849Y-93997587D01*
X158575412Y-94104811D01*
X158534014Y-94134889D01*
X158384336Y-94243637D01*
X158384334Y-94243639D01*
X158384333Y-94243639D01*
X158217331Y-94410641D01*
X158217331Y-94410642D01*
X158217329Y-94410644D01*
X158160983Y-94488198D01*
X158078503Y-94601720D01*
X157971279Y-94812157D01*
X157898292Y-95036785D01*
X157861346Y-95270056D01*
X157861346Y-95506251D01*
X157894425Y-95715101D01*
X157885471Y-95784394D01*
X157840474Y-95837846D01*
X157773723Y-95858486D01*
X157706409Y-95839761D01*
X157699067Y-95834817D01*
X157536436Y-95716659D01*
X157536435Y-95716658D01*
X157536433Y-95716657D01*
X157470715Y-95683172D01*
X157325996Y-95609433D01*
X157101368Y-95536446D01*
X156868097Y-95499500D01*
X156868092Y-95499500D01*
X156631908Y-95499500D01*
X156631903Y-95499500D01*
X156398631Y-95536446D01*
X156174003Y-95609433D01*
X155963566Y-95716657D01*
X155870335Y-95784394D01*
X155772490Y-95855483D01*
X155772488Y-95855485D01*
X155772487Y-95855485D01*
X155605485Y-96022487D01*
X155605485Y-96022488D01*
X155605483Y-96022490D01*
X155545862Y-96104550D01*
X155466657Y-96213566D01*
X155359433Y-96424003D01*
X155286446Y-96648631D01*
X155249500Y-96881902D01*
X150630500Y-96881902D01*
X150593553Y-96648631D01*
X150520566Y-96424003D01*
X150464002Y-96312991D01*
X150413343Y-96213567D01*
X150274517Y-96022490D01*
X150107510Y-95855483D01*
X149916433Y-95716657D01*
X149913379Y-95715101D01*
X149705996Y-95609433D01*
X149481368Y-95536446D01*
X149248097Y-95499500D01*
X149248092Y-95499500D01*
X149011908Y-95499500D01*
X149011903Y-95499500D01*
X148778631Y-95536446D01*
X148554003Y-95609433D01*
X148343566Y-95716657D01*
X148250335Y-95784394D01*
X148152490Y-95855483D01*
X148152488Y-95855485D01*
X148152486Y-95855486D01*
X148120104Y-95887868D01*
X148058780Y-95921353D01*
X147989089Y-95916367D01*
X147933156Y-95874495D01*
X147908740Y-95809030D01*
X147909951Y-95780788D01*
X147944577Y-95562174D01*
X147944577Y-95325979D01*
X147907630Y-95092708D01*
X147860143Y-94946560D01*
X147834645Y-94868085D01*
X147834643Y-94868082D01*
X147834643Y-94868080D01*
X147747014Y-94696100D01*
X147727420Y-94657644D01*
X147588594Y-94466567D01*
X147421587Y-94299560D01*
X147230510Y-94160734D01*
X147020073Y-94053510D01*
X146795445Y-93980523D01*
X146562174Y-93943577D01*
X146562169Y-93943577D01*
X146325985Y-93943577D01*
X146325980Y-93943577D01*
X146092708Y-93980523D01*
X145868080Y-94053510D01*
X145657643Y-94160734D01*
X145548627Y-94239939D01*
X145466567Y-94299560D01*
X145466565Y-94299562D01*
X145466564Y-94299562D01*
X145299562Y-94466564D01*
X145299562Y-94466565D01*
X145299560Y-94466567D01*
X145239939Y-94548627D01*
X145160734Y-94657643D01*
X145053510Y-94868080D01*
X144980523Y-95092708D01*
X144943577Y-95325979D01*
X142622913Y-95325979D01*
X142622913Y-94560139D01*
X142622913Y-94560138D01*
X142617768Y-94488199D01*
X142577232Y-94350147D01*
X142499444Y-94229107D01*
X142440586Y-94178106D01*
X142390712Y-94134889D01*
X142390710Y-94134887D01*
X142390707Y-94134885D01*
X142390703Y-94134883D01*
X142259832Y-94075115D01*
X142259827Y-94075114D01*
X142117413Y-94054639D01*
X140044772Y-94054639D01*
X139977733Y-94034954D01*
X139931978Y-93982150D01*
X139920772Y-93930639D01*
X139920772Y-91944879D01*
X139920772Y-91944878D01*
X139915627Y-91872939D01*
X139875091Y-91734887D01*
X139797303Y-91613847D01*
X139738445Y-91562846D01*
X139688571Y-91519629D01*
X139688569Y-91519627D01*
X139688566Y-91519625D01*
X139688240Y-91519476D01*
X139557691Y-91459855D01*
X139557686Y-91459854D01*
X139415272Y-91439379D01*
X137342624Y-91439379D01*
X137275585Y-91419694D01*
X137229830Y-91366890D01*
X137218624Y-91315379D01*
X137218624Y-89390013D01*
X137238309Y-89322974D01*
X137291113Y-89277219D01*
X137360271Y-89267275D01*
X137423827Y-89296300D01*
X137430305Y-89302332D01*
X137522490Y-89394517D01*
X137713567Y-89533343D01*
X137812110Y-89583553D01*
X137924003Y-89640566D01*
X137924005Y-89640566D01*
X137924008Y-89640568D01*
X138023786Y-89672988D01*
X138148631Y-89713553D01*
X138381903Y-89750500D01*
X138381908Y-89750500D01*
X138618097Y-89750500D01*
X138851368Y-89713553D01*
X139075992Y-89640568D01*
X139286433Y-89533343D01*
X139450985Y-89413787D01*
X139516789Y-89390309D01*
X139584843Y-89406134D01*
X139633538Y-89456240D01*
X139647414Y-89524718D01*
X139641800Y-89552426D01*
X139592369Y-89704554D01*
X139555423Y-89937825D01*
X139555423Y-90174020D01*
X139592369Y-90407291D01*
X139665356Y-90631919D01*
X139744086Y-90786433D01*
X139772580Y-90842356D01*
X139911406Y-91033433D01*
X140078413Y-91200440D01*
X140269490Y-91339266D01*
X140354181Y-91382418D01*
X140479926Y-91446489D01*
X140479928Y-91446489D01*
X140479931Y-91446491D01*
X140598634Y-91485060D01*
X140704554Y-91519476D01*
X140937826Y-91556423D01*
X140937831Y-91556423D01*
X141174020Y-91556423D01*
X141407291Y-91519476D01*
X141631915Y-91446491D01*
X141842356Y-91339266D01*
X142033433Y-91200440D01*
X142200440Y-91033433D01*
X142339266Y-90842356D01*
X142446491Y-90631915D01*
X142519476Y-90407291D01*
X142521645Y-90393596D01*
X142556423Y-90174020D01*
X142556423Y-89937825D01*
X142519476Y-89704554D01*
X142465230Y-89537603D01*
X142446491Y-89479931D01*
X142446489Y-89479928D01*
X142446489Y-89479926D01*
X142339265Y-89269488D01*
X142279482Y-89187205D01*
X142200440Y-89078413D01*
X142033433Y-88911406D01*
X141842356Y-88772580D01*
X141804902Y-88753496D01*
X141631919Y-88665356D01*
X141407291Y-88592369D01*
X141174020Y-88555423D01*
X141174015Y-88555423D01*
X140937831Y-88555423D01*
X140937826Y-88555423D01*
X140704554Y-88592369D01*
X140479926Y-88665356D01*
X140269486Y-88772582D01*
X140104938Y-88892133D01*
X140039132Y-88915613D01*
X139971078Y-88899787D01*
X139922383Y-88849682D01*
X139908508Y-88781204D01*
X139914119Y-88753507D01*
X139963553Y-88601368D01*
X139971689Y-88550000D01*
X140000500Y-88368097D01*
X140000500Y-88131902D01*
X139990418Y-88068249D01*
X139987869Y-88052155D01*
X150325000Y-88052155D01*
X150325000Y-88750000D01*
X151349722Y-88750000D01*
X151305667Y-88826306D01*
X151275000Y-88940756D01*
X151275000Y-89059244D01*
X151305667Y-89173694D01*
X151349722Y-89250000D01*
X150325000Y-89250000D01*
X150325000Y-89947844D01*
X150331401Y-90007372D01*
X150331403Y-90007379D01*
X150381645Y-90142086D01*
X150381649Y-90142093D01*
X150467809Y-90257187D01*
X150467812Y-90257190D01*
X150582906Y-90343350D01*
X150582913Y-90343354D01*
X150717620Y-90393596D01*
X150717627Y-90393598D01*
X150777155Y-90399999D01*
X150777172Y-90400000D01*
X151475000Y-90400000D01*
X151475000Y-89375277D01*
X151551306Y-89419333D01*
X151665756Y-89450000D01*
X151784244Y-89450000D01*
X151898694Y-89419333D01*
X151975000Y-89375277D01*
X151975000Y-90400000D01*
X152672828Y-90400000D01*
X152672844Y-90399999D01*
X152732372Y-90393598D01*
X152732379Y-90393596D01*
X152867086Y-90343354D01*
X152867093Y-90343350D01*
X152982187Y-90257190D01*
X152982190Y-90257187D01*
X153068350Y-90142093D01*
X153068354Y-90142086D01*
X153098213Y-90062031D01*
X153140084Y-90006097D01*
X153205548Y-89981680D01*
X153273821Y-89996531D01*
X153302076Y-90017683D01*
X153352636Y-90068243D01*
X153352641Y-90068247D01*
X153498220Y-90174015D01*
X153530978Y-90197815D01*
X153647501Y-90257187D01*
X153727393Y-90297895D01*
X153727396Y-90297896D01*
X153832221Y-90331955D01*
X153937049Y-90366015D01*
X154154778Y-90400500D01*
X154154779Y-90400500D01*
X154375221Y-90400500D01*
X154375222Y-90400500D01*
X154592951Y-90366015D01*
X154802606Y-90297895D01*
X154999022Y-90197815D01*
X155177365Y-90068242D01*
X155333242Y-89912365D01*
X155355375Y-89881902D01*
X163249500Y-89881902D01*
X163249500Y-90118097D01*
X163286446Y-90351368D01*
X163359433Y-90575996D01*
X163466657Y-90786433D01*
X163605483Y-90977510D01*
X163772490Y-91144517D01*
X163963567Y-91283343D01*
X164062991Y-91334002D01*
X164174003Y-91390566D01*
X164174005Y-91390566D01*
X164174008Y-91390568D01*
X164289744Y-91428173D01*
X164398631Y-91463553D01*
X164631903Y-91500500D01*
X164631908Y-91500500D01*
X164868097Y-91500500D01*
X165101368Y-91463553D01*
X165153885Y-91446489D01*
X165325992Y-91390568D01*
X165536433Y-91283343D01*
X165727510Y-91144517D01*
X165894517Y-90977510D01*
X166033343Y-90786433D01*
X166140568Y-90575992D01*
X166213553Y-90351368D01*
X166222022Y-90297895D01*
X166250500Y-90118097D01*
X166250500Y-89881902D01*
X166213553Y-89648631D01*
X166165760Y-89501541D01*
X166140568Y-89424008D01*
X166140566Y-89424005D01*
X166140566Y-89424003D01*
X166078571Y-89302332D01*
X166033343Y-89213567D01*
X165894517Y-89022490D01*
X165727510Y-88855483D01*
X165536433Y-88716657D01*
X165325996Y-88609433D01*
X165101368Y-88536446D01*
X164868097Y-88499500D01*
X164868092Y-88499500D01*
X164631908Y-88499500D01*
X164631903Y-88499500D01*
X164398631Y-88536446D01*
X164174003Y-88609433D01*
X163963566Y-88716657D01*
X163886596Y-88772580D01*
X163772490Y-88855483D01*
X163772488Y-88855485D01*
X163772487Y-88855485D01*
X163605485Y-89022487D01*
X163605485Y-89022488D01*
X163605483Y-89022490D01*
X163550978Y-89097510D01*
X163466657Y-89213566D01*
X163359433Y-89424003D01*
X163286446Y-89648631D01*
X163249500Y-89881902D01*
X155355375Y-89881902D01*
X155462815Y-89734022D01*
X155562895Y-89537606D01*
X155631015Y-89327951D01*
X155665500Y-89110222D01*
X155665500Y-88889778D01*
X155631015Y-88672049D01*
X155596955Y-88567221D01*
X155562896Y-88462396D01*
X155562895Y-88462393D01*
X155514845Y-88368092D01*
X155462815Y-88265978D01*
X155365404Y-88131902D01*
X155333247Y-88087641D01*
X155333243Y-88087636D01*
X155177363Y-87931756D01*
X155177358Y-87931752D01*
X154999025Y-87802187D01*
X154999024Y-87802186D01*
X154999022Y-87802185D01*
X154897578Y-87750496D01*
X154802606Y-87702104D01*
X154802603Y-87702103D01*
X154592952Y-87633985D01*
X154484086Y-87616742D01*
X154375222Y-87599500D01*
X154154778Y-87599500D01*
X154103984Y-87607545D01*
X153937047Y-87633985D01*
X153727396Y-87702103D01*
X153727393Y-87702104D01*
X153530974Y-87802187D01*
X153352641Y-87931752D01*
X153352636Y-87931756D01*
X153302075Y-87982317D01*
X153240752Y-88015801D01*
X153171060Y-88010816D01*
X153115127Y-87968945D01*
X153098213Y-87937968D01*
X153068354Y-87857913D01*
X153068350Y-87857906D01*
X152982190Y-87742812D01*
X152982187Y-87742809D01*
X152867093Y-87656649D01*
X152867086Y-87656645D01*
X152732379Y-87606403D01*
X152732372Y-87606401D01*
X152672844Y-87600000D01*
X151975000Y-87600000D01*
X151975000Y-88624722D01*
X151898694Y-88580667D01*
X151784244Y-88550000D01*
X151665756Y-88550000D01*
X151551306Y-88580667D01*
X151475000Y-88624722D01*
X151475000Y-87600000D01*
X150777155Y-87600000D01*
X150717627Y-87606401D01*
X150717620Y-87606403D01*
X150582913Y-87656645D01*
X150582906Y-87656649D01*
X150467812Y-87742809D01*
X150467809Y-87742812D01*
X150381649Y-87857906D01*
X150381645Y-87857913D01*
X150331403Y-87992620D01*
X150331401Y-87992627D01*
X150325000Y-88052155D01*
X139987869Y-88052155D01*
X139963553Y-87898631D01*
X139915421Y-87750497D01*
X139890568Y-87674008D01*
X139890566Y-87674005D01*
X139890566Y-87674003D01*
X139783342Y-87463566D01*
X139749149Y-87416503D01*
X139644517Y-87272490D01*
X139477510Y-87105483D01*
X139286433Y-86966657D01*
X139260672Y-86953531D01*
X139075996Y-86859433D01*
X138851368Y-86786446D01*
X138618097Y-86749500D01*
X138618092Y-86749500D01*
X138381908Y-86749500D01*
X138381903Y-86749500D01*
X138148631Y-86786446D01*
X137924003Y-86859433D01*
X137713566Y-86966657D01*
X137609293Y-87042417D01*
X137522490Y-87105483D01*
X137522488Y-87105485D01*
X137522487Y-87105485D01*
X137355485Y-87272487D01*
X137355485Y-87272488D01*
X137355483Y-87272490D01*
X137313760Y-87329917D01*
X137216657Y-87463566D01*
X137109433Y-87674003D01*
X137036446Y-87898631D01*
X136999500Y-88131902D01*
X136999500Y-88368097D01*
X137036446Y-88601368D01*
X137057238Y-88665356D01*
X137066607Y-88694192D01*
X137073590Y-88715681D01*
X137075585Y-88785522D01*
X137039505Y-88845355D01*
X136976804Y-88876184D01*
X136907390Y-88868220D01*
X136904149Y-88866795D01*
X136855543Y-88844598D01*
X136855538Y-88844596D01*
X136713124Y-88824121D01*
X134640481Y-88824121D01*
X134573442Y-88804436D01*
X134527687Y-88751632D01*
X134516481Y-88700121D01*
X134516481Y-86714363D01*
X134516481Y-86714362D01*
X134511336Y-86642423D01*
X134470800Y-86504371D01*
X134393012Y-86383331D01*
X134334154Y-86332330D01*
X134284280Y-86289113D01*
X134284278Y-86289111D01*
X134284275Y-86289109D01*
X134284271Y-86289107D01*
X134153400Y-86229339D01*
X134153395Y-86229338D01*
X134010981Y-86208863D01*
X131938339Y-86208863D01*
X131871300Y-86189178D01*
X131825545Y-86136374D01*
X131814339Y-86084863D01*
X131814339Y-85618903D01*
X141200481Y-85618903D01*
X141200481Y-85881092D01*
X141234701Y-86141007D01*
X141234703Y-86141018D01*
X141302556Y-86394253D01*
X141402885Y-86636469D01*
X141402890Y-86636480D01*
X141533969Y-86863514D01*
X141533975Y-86863522D01*
X141620561Y-86976363D01*
X142522902Y-86074022D01*
X142535840Y-86105256D01*
X142617918Y-86228095D01*
X142722384Y-86332561D01*
X142845223Y-86414639D01*
X142876455Y-86427575D01*
X141974114Y-87329915D01*
X141974114Y-87329916D01*
X142086956Y-87416503D01*
X142086964Y-87416509D01*
X142313998Y-87547588D01*
X142314009Y-87547593D01*
X142556225Y-87647922D01*
X142809460Y-87715775D01*
X142809471Y-87715777D01*
X143069386Y-87749997D01*
X143069401Y-87749998D01*
X143331561Y-87749998D01*
X143331575Y-87749997D01*
X143591490Y-87715777D01*
X143591501Y-87715775D01*
X143844736Y-87647922D01*
X144086952Y-87547593D01*
X144086963Y-87547588D01*
X144313997Y-87416509D01*
X144314015Y-87416497D01*
X144426846Y-87329917D01*
X144426846Y-87329915D01*
X143524506Y-86427576D01*
X143555739Y-86414639D01*
X143678578Y-86332561D01*
X143783044Y-86228095D01*
X143865122Y-86105256D01*
X143878058Y-86074023D01*
X144780398Y-86976363D01*
X144780400Y-86976363D01*
X144866980Y-86863532D01*
X144866992Y-86863514D01*
X144998071Y-86636480D01*
X144998076Y-86636469D01*
X145098405Y-86394253D01*
X145166258Y-86141018D01*
X145166260Y-86141007D01*
X145200480Y-85881092D01*
X145200481Y-85881078D01*
X145200481Y-85618917D01*
X145200480Y-85618903D01*
X145166260Y-85358988D01*
X145166258Y-85358977D01*
X145098405Y-85105742D01*
X144998076Y-84863526D01*
X144998071Y-84863515D01*
X144866992Y-84636481D01*
X144866986Y-84636473D01*
X144780399Y-84523631D01*
X144780398Y-84523631D01*
X143878058Y-85425971D01*
X143865122Y-85394740D01*
X143783044Y-85271901D01*
X143678578Y-85167435D01*
X143555739Y-85085357D01*
X143524504Y-85072419D01*
X144426846Y-84170078D01*
X144314005Y-84083492D01*
X144313997Y-84083486D01*
X144086963Y-83952407D01*
X144086952Y-83952402D01*
X143844736Y-83852073D01*
X143591501Y-83784220D01*
X143591490Y-83784218D01*
X143331575Y-83749998D01*
X143069386Y-83749998D01*
X142809471Y-83784218D01*
X142809460Y-83784220D01*
X142556225Y-83852073D01*
X142314009Y-83952402D01*
X142313998Y-83952407D01*
X142086952Y-84083494D01*
X141974114Y-84170077D01*
X141974114Y-84170078D01*
X142876455Y-85072419D01*
X142845223Y-85085357D01*
X142722384Y-85167435D01*
X142617918Y-85271901D01*
X142535840Y-85394740D01*
X142522902Y-85425972D01*
X141620561Y-84523631D01*
X141620560Y-84523631D01*
X141533977Y-84636469D01*
X141402890Y-84863515D01*
X141402885Y-84863526D01*
X141302556Y-85105742D01*
X141234703Y-85358977D01*
X141234701Y-85358988D01*
X141200481Y-85618903D01*
X131814339Y-85618903D01*
X131814339Y-78723922D01*
X133437577Y-78723922D01*
X133437577Y-84024514D01*
X133442721Y-84096452D01*
X133483259Y-84234506D01*
X133561044Y-84355542D01*
X133561048Y-84355546D01*
X133669777Y-84449761D01*
X133669783Y-84449766D01*
X133710251Y-84468247D01*
X133800657Y-84509535D01*
X133800660Y-84509535D01*
X133800661Y-84509536D01*
X133943077Y-84530012D01*
X133943080Y-84530012D01*
X136717811Y-84530012D01*
X136789751Y-84524867D01*
X136927803Y-84484331D01*
X137048843Y-84406543D01*
X137143065Y-84297806D01*
X137202835Y-84166928D01*
X137223311Y-84024512D01*
X137223311Y-81774700D01*
X137242996Y-81707661D01*
X137295800Y-81661906D01*
X137364958Y-81651962D01*
X137428514Y-81680987D01*
X137434992Y-81687019D01*
X137522490Y-81774517D01*
X137713567Y-81913343D01*
X137811152Y-81963065D01*
X137924003Y-82020566D01*
X137924005Y-82020566D01*
X137924008Y-82020568D01*
X138044412Y-82059689D01*
X138148631Y-82093553D01*
X138381903Y-82130500D01*
X138381908Y-82130500D01*
X138618097Y-82130500D01*
X138851368Y-82093553D01*
X139075992Y-82020568D01*
X139286433Y-81913343D01*
X139477510Y-81774517D01*
X139644517Y-81607510D01*
X139783343Y-81416433D01*
X139890568Y-81205992D01*
X139963403Y-80981828D01*
X140002841Y-80924153D01*
X140067199Y-80896955D01*
X140136046Y-80908870D01*
X140187521Y-80956114D01*
X140198376Y-80979192D01*
X140252331Y-81133388D01*
X140345246Y-81281262D01*
X140468737Y-81404753D01*
X140616613Y-81497669D01*
X140781460Y-81555351D01*
X140911469Y-81569999D01*
X140911473Y-81570000D01*
X141330000Y-81570000D01*
X141330000Y-79470000D01*
X140911469Y-79470000D01*
X140781460Y-79484648D01*
X140616613Y-79542330D01*
X140468737Y-79635246D01*
X140345246Y-79758737D01*
X140252330Y-79906613D01*
X140194648Y-80071460D01*
X140181949Y-80184167D01*
X140154882Y-80248581D01*
X140097287Y-80288136D01*
X140027450Y-80290273D01*
X139967544Y-80254314D01*
X139940798Y-80208601D01*
X139931479Y-80179920D01*
X139890568Y-80054008D01*
X139783343Y-79843567D01*
X139644517Y-79652490D01*
X139482018Y-79489991D01*
X139448533Y-79428668D01*
X139453517Y-79358976D01*
X139495389Y-79303043D01*
X139534761Y-79283334D01*
X139627601Y-79256074D01*
X139748641Y-79178286D01*
X139842863Y-79069549D01*
X139884151Y-78979139D01*
X139902632Y-78938674D01*
X139902633Y-78938669D01*
X139903672Y-78931445D01*
X139923109Y-78796255D01*
X139923109Y-76952900D01*
X139942794Y-76885861D01*
X139995598Y-76840106D01*
X140047109Y-76828900D01*
X140275244Y-76828900D01*
X140342283Y-76848585D01*
X140388038Y-76901389D01*
X140397982Y-76970547D01*
X140368957Y-77034103D01*
X140349559Y-77052162D01*
X140328698Y-77067779D01*
X140322451Y-77072456D01*
X140236206Y-77187664D01*
X140236202Y-77187671D01*
X140185908Y-77322517D01*
X140179501Y-77382116D01*
X140179501Y-77382123D01*
X140179500Y-77382135D01*
X140179500Y-78577870D01*
X140179501Y-78577876D01*
X140185908Y-78637483D01*
X140236202Y-78772328D01*
X140236206Y-78772335D01*
X140322452Y-78887544D01*
X140322455Y-78887547D01*
X140437664Y-78973793D01*
X140437671Y-78973797D01*
X140572517Y-79024091D01*
X140572516Y-79024091D01*
X140579444Y-79024835D01*
X140632127Y-79030500D01*
X142125500Y-79030499D01*
X142134185Y-79033049D01*
X142143147Y-79031761D01*
X142167187Y-79042739D01*
X142192539Y-79050184D01*
X142198466Y-79057024D01*
X142206703Y-79060786D01*
X142220990Y-79083018D01*
X142238294Y-79102987D01*
X142240581Y-79113502D01*
X142244477Y-79119564D01*
X142249500Y-79154499D01*
X142249500Y-79346000D01*
X142229815Y-79413039D01*
X142177011Y-79458794D01*
X142125500Y-79470000D01*
X141830000Y-79470000D01*
X141830000Y-80173589D01*
X141749745Y-80219925D01*
X141679925Y-80289745D01*
X141630556Y-80375255D01*
X141605000Y-80470630D01*
X141605000Y-80569370D01*
X141630556Y-80664745D01*
X141679925Y-80750255D01*
X141749745Y-80820075D01*
X141830000Y-80866410D01*
X141830000Y-81570000D01*
X142248527Y-81570000D01*
X142248530Y-81569999D01*
X142378539Y-81555351D01*
X142543386Y-81497669D01*
X142691262Y-81404753D01*
X142814753Y-81281262D01*
X142851905Y-81222135D01*
X150679500Y-81222135D01*
X150679500Y-83117870D01*
X150679501Y-83117876D01*
X150685908Y-83177483D01*
X150736202Y-83312328D01*
X150736206Y-83312335D01*
X150822452Y-83427544D01*
X150822455Y-83427547D01*
X150937664Y-83513793D01*
X150937671Y-83513797D01*
X151072517Y-83564091D01*
X151072516Y-83564091D01*
X151079444Y-83564835D01*
X151132127Y-83570500D01*
X152327872Y-83570499D01*
X152387483Y-83564091D01*
X152522331Y-83513796D01*
X152637546Y-83427546D01*
X152723796Y-83312331D01*
X152774091Y-83177483D01*
X152780500Y-83117873D01*
X152780500Y-82838530D01*
X153220000Y-82838530D01*
X153234648Y-82968539D01*
X153292330Y-83133386D01*
X153385246Y-83281262D01*
X153508737Y-83404753D01*
X153656613Y-83497669D01*
X153821460Y-83555351D01*
X153951469Y-83569999D01*
X153951473Y-83570000D01*
X154020000Y-83570000D01*
X154520000Y-83570000D01*
X154588527Y-83570000D01*
X154588530Y-83569999D01*
X154718539Y-83555351D01*
X154883386Y-83497669D01*
X155031262Y-83404753D01*
X155154753Y-83281262D01*
X155247669Y-83133386D01*
X155305351Y-82968539D01*
X155319999Y-82838530D01*
X155320000Y-82838526D01*
X155320000Y-82420000D01*
X154520000Y-82420000D01*
X154520000Y-83570000D01*
X154020000Y-83570000D01*
X154020000Y-82420000D01*
X153220000Y-82420000D01*
X153220000Y-82838530D01*
X152780500Y-82838530D01*
X152780499Y-81624499D01*
X152800184Y-81557461D01*
X152852988Y-81511706D01*
X152904499Y-81500500D01*
X153096000Y-81500500D01*
X153163039Y-81520185D01*
X153208794Y-81572989D01*
X153220000Y-81624500D01*
X153220000Y-81920000D01*
X153923590Y-81920000D01*
X153969925Y-82000255D01*
X154039745Y-82070075D01*
X154125255Y-82119444D01*
X154220630Y-82145000D01*
X154319370Y-82145000D01*
X154414745Y-82119444D01*
X154500255Y-82070075D01*
X154570075Y-82000255D01*
X154616410Y-81920000D01*
X155320000Y-81920000D01*
X155320000Y-81501473D01*
X155319999Y-81501469D01*
X155305351Y-81371460D01*
X155247669Y-81206613D01*
X155154753Y-81058737D01*
X155031262Y-80935246D01*
X154883386Y-80842330D01*
X154718539Y-80784648D01*
X154588530Y-80770000D01*
X154520000Y-80770000D01*
X154520000Y-81489670D01*
X154500255Y-81469925D01*
X154414745Y-81420556D01*
X154319370Y-81395000D01*
X154220630Y-81395000D01*
X154125255Y-81420556D01*
X154039745Y-81469925D01*
X154020000Y-81489670D01*
X154020000Y-80964994D01*
X154020940Y-80949759D01*
X154022571Y-80936577D01*
X154035841Y-80898657D01*
X154050500Y-80768552D01*
X154050500Y-79431448D01*
X154036033Y-79303043D01*
X154035842Y-79301351D01*
X154035841Y-79301349D01*
X154035841Y-79301343D01*
X153978122Y-79136394D01*
X153885147Y-78988424D01*
X153761576Y-78864853D01*
X153613606Y-78771878D01*
X153613605Y-78771877D01*
X153613604Y-78771877D01*
X153448658Y-78714159D01*
X153448648Y-78714157D01*
X153318558Y-78699500D01*
X153318552Y-78699500D01*
X152681448Y-78699500D01*
X152681441Y-78699500D01*
X152551351Y-78714157D01*
X152551341Y-78714159D01*
X152386395Y-78771877D01*
X152238423Y-78864853D01*
X152114853Y-78988423D01*
X152021877Y-79136395D01*
X151964159Y-79301341D01*
X151964157Y-79301351D01*
X151949500Y-79431441D01*
X151949500Y-80645500D01*
X151929815Y-80712539D01*
X151877011Y-80758294D01*
X151825500Y-80769500D01*
X151132129Y-80769500D01*
X151132123Y-80769501D01*
X151072516Y-80775908D01*
X150937671Y-80826202D01*
X150937664Y-80826206D01*
X150822455Y-80912452D01*
X150822452Y-80912455D01*
X150736206Y-81027664D01*
X150736202Y-81027671D01*
X150685908Y-81162517D01*
X150679501Y-81222116D01*
X150679500Y-81222135D01*
X142851905Y-81222135D01*
X142895450Y-81152834D01*
X142907669Y-81133386D01*
X142965351Y-80968539D01*
X142979999Y-80838530D01*
X142980000Y-80838526D01*
X142980000Y-80770000D01*
X142260330Y-80770000D01*
X142280075Y-80750255D01*
X142329444Y-80664745D01*
X142355000Y-80569370D01*
X142355000Y-80470630D01*
X142329444Y-80375255D01*
X142280075Y-80289745D01*
X142260330Y-80270000D01*
X142785005Y-80270000D01*
X142825960Y-80276959D01*
X142851343Y-80285841D01*
X142851349Y-80285841D01*
X142851351Y-80285842D01*
X142871712Y-80288136D01*
X142981442Y-80300499D01*
X142981445Y-80300500D01*
X142981448Y-80300500D01*
X144318555Y-80300500D01*
X144318556Y-80300499D01*
X144448657Y-80285841D01*
X144613606Y-80228122D01*
X144761576Y-80135147D01*
X144885147Y-80011576D01*
X144978122Y-79863606D01*
X145035841Y-79698657D01*
X145050500Y-79568552D01*
X145050500Y-78931448D01*
X145035841Y-78801343D01*
X144978122Y-78636394D01*
X144885147Y-78488424D01*
X144761576Y-78364853D01*
X144613606Y-78271878D01*
X144613605Y-78271877D01*
X144613604Y-78271877D01*
X144448658Y-78214159D01*
X144448648Y-78214157D01*
X144318558Y-78199500D01*
X144318552Y-78199500D01*
X143104499Y-78199500D01*
X143037460Y-78179815D01*
X142991705Y-78127011D01*
X142980499Y-78075500D01*
X142980499Y-77382129D01*
X142980498Y-77382123D01*
X142980497Y-77382116D01*
X142974091Y-77322517D01*
X142950329Y-77258809D01*
X142923797Y-77187671D01*
X142923793Y-77187664D01*
X142837547Y-77072455D01*
X142837544Y-77072452D01*
X142722335Y-76986206D01*
X142722328Y-76986202D01*
X142587482Y-76935908D01*
X142587483Y-76935908D01*
X142527883Y-76929501D01*
X142527881Y-76929500D01*
X142527873Y-76929500D01*
X142527865Y-76929500D01*
X142524438Y-76929500D01*
X142457399Y-76909815D01*
X142411644Y-76857011D01*
X142401700Y-76787853D01*
X142430725Y-76724297D01*
X142444818Y-76712086D01*
X142444086Y-76711241D01*
X142450785Y-76705434D01*
X142450791Y-76705431D01*
X142545013Y-76596694D01*
X142604783Y-76465816D01*
X142625259Y-76323400D01*
X142625259Y-75636612D01*
X142644944Y-75569573D01*
X142697748Y-75523818D01*
X142766906Y-75513874D01*
X142822142Y-75536292D01*
X143010534Y-75673168D01*
X143109958Y-75723827D01*
X143220970Y-75780391D01*
X143220972Y-75780391D01*
X143220975Y-75780393D01*
X143341379Y-75819514D01*
X143445598Y-75853378D01*
X143678870Y-75890325D01*
X143678875Y-75890325D01*
X143915064Y-75890325D01*
X144148335Y-75853378D01*
X144179059Y-75843395D01*
X144372959Y-75780393D01*
X144583400Y-75673168D01*
X144774477Y-75534342D01*
X144941484Y-75367335D01*
X145080310Y-75176258D01*
X145187535Y-74965817D01*
X145260520Y-74741193D01*
X145297467Y-74507922D01*
X145297467Y-74271727D01*
X145260520Y-74038456D01*
X145226656Y-73934237D01*
X145187535Y-73813833D01*
X145187533Y-73813829D01*
X145187533Y-73813828D01*
X145130969Y-73702816D01*
X145080310Y-73603392D01*
X144941484Y-73412315D01*
X144774477Y-73245308D01*
X144583400Y-73106482D01*
X144372963Y-72999258D01*
X144148335Y-72926271D01*
X143915064Y-72889325D01*
X143915059Y-72889325D01*
X143678875Y-72889325D01*
X143678870Y-72889325D01*
X143445598Y-72926271D01*
X143220970Y-72999258D01*
X143010533Y-73106482D01*
X142819458Y-73245307D01*
X142710727Y-73354038D01*
X142649404Y-73387522D01*
X142579712Y-73382538D01*
X142523779Y-73340666D01*
X142518738Y-73333406D01*
X142501790Y-73307035D01*
X142488270Y-73295320D01*
X142393058Y-73212817D01*
X142393056Y-73212815D01*
X142393053Y-73212813D01*
X142393049Y-73212811D01*
X142262178Y-73153043D01*
X142262173Y-73153042D01*
X142119759Y-73132567D01*
X139345024Y-73132567D01*
X139345021Y-73132567D01*
X139273083Y-73137711D01*
X139135029Y-73178249D01*
X139013993Y-73256034D01*
X139013989Y-73256038D01*
X138919774Y-73364767D01*
X138919768Y-73364776D01*
X138860000Y-73495647D01*
X138859999Y-73495652D01*
X138839524Y-73638066D01*
X138839524Y-75479164D01*
X138819839Y-75546203D01*
X138767035Y-75591958D01*
X138715524Y-75603164D01*
X136642879Y-75603164D01*
X136570941Y-75608308D01*
X136432887Y-75648846D01*
X136311851Y-75726631D01*
X136311847Y-75726635D01*
X136217632Y-75835364D01*
X136217626Y-75835373D01*
X136157858Y-75966244D01*
X136157857Y-75966249D01*
X136137382Y-76108663D01*
X136137382Y-78094423D01*
X136117697Y-78161462D01*
X136064893Y-78207217D01*
X136013382Y-78218423D01*
X133943074Y-78218423D01*
X133871136Y-78223567D01*
X133733082Y-78264105D01*
X133612046Y-78341890D01*
X133612042Y-78341894D01*
X133517827Y-78450623D01*
X133517821Y-78450632D01*
X133458053Y-78581503D01*
X133458052Y-78581508D01*
X133437577Y-78723922D01*
X131814339Y-78723922D01*
X131814339Y-76952900D01*
X131834024Y-76885861D01*
X131886828Y-76840106D01*
X131938339Y-76828900D01*
X134010981Y-76828900D01*
X134082921Y-76823755D01*
X134220973Y-76783219D01*
X134342013Y-76705431D01*
X134436235Y-76596694D01*
X134496005Y-76465816D01*
X134516481Y-76323400D01*
X134516481Y-74337643D01*
X134536166Y-74270604D01*
X134588970Y-74224849D01*
X134640481Y-74213643D01*
X136713124Y-74213643D01*
X136785064Y-74208498D01*
X136923116Y-74167962D01*
X137044156Y-74090174D01*
X137138378Y-73981437D01*
X137198148Y-73850559D01*
X137218624Y-73708143D01*
X137218624Y-71722384D01*
X137238309Y-71655345D01*
X137291113Y-71609590D01*
X137342624Y-71598384D01*
X146817273Y-71598384D01*
X146884312Y-71618069D01*
G37*
%TD.AperFunction*%
%TD*%
M02*
